<?xml version="1.0" encoding="utf-8"?>
<!-- Generator: Adobe Illustrator 20.0.0, SVG Export Plug-In . SVG Version: 6.00 Build 0)  -->
<svg version="1.1" id="Capa_1" xmlns="http://www.w3.org/2000/svg" xmlns:xlink="http://www.w3.org/1999/xlink" x="0px" y="0px"
	 viewBox="0 0 40 40" style="enable-background:new 0 0 40 40;" xml:space="preserve">
<style type="text/css">
	.st0{fill:#8BC441;}
</style>
<title>next-page-hover</title>
<path class="st0" d="M1.2,26.7c3.7,10.4,15.1,15.8,25.5,12.1c5-1.8,9-5.5,11.3-10.2c2.3-4.8,2.6-10.3,0.8-15.3
	c-0.2-0.4-0.6-0.6-1-0.5c-0.4,0.2-0.6,0.6-0.5,1c3.4,9.6-1.6,20.1-11.2,23.5c-4.6,1.6-9.6,1.4-14-0.7C2.9,32.3-1,21.3,3.3,12.1
	S18.6-1,27.8,3.4c0.6,0.3,1.1,0.5,1.6,0.9c0.4,0.2,0.9,0.1,1.1-0.3c0.2-0.4,0.1-0.9-0.3-1.1c-9.5-5.7-21.8-2.5-27.4,7
	C-0.2,14.9-0.8,21.1,1.2,26.7z"/>
<path class="st0" d="M11,20c0,0.4,0.4,0.8,0.8,0.8h20.3c0.4,0,0.8-0.4,0.8-0.8s-0.4-0.8-0.8-0.8H11.8C11.4,19.2,11,19.6,11,20z"/>
<path class="st0" d="M17.5,11.5c0.3-0.3,0.3-0.8,0-1.2c-0.3-0.3-0.8-0.3-1.2,0l-9.1,9.1c-0.3,0.3-0.3,0.8,0,1.1l0,0l9.1,9.1
	c0.3,0.3,0.8,0.3,1.2,0c0.3-0.3,0.3-0.8,0-1.2L9,20L17.5,11.5z"/>
</svg>
