<?xml version="1.0" encoding="utf-8"?>
<!-- Generator: Adobe Illustrator 20.0.0, SVG Export Plug-In . SVG Version: 6.00 Build 0)  -->
<svg version="1.1" id="Capa_1" xmlns="http://www.w3.org/2000/svg" xmlns:xlink="http://www.w3.org/1999/xlink" x="0px" y="0px"
	 viewBox="0 0 96.4 96.4" style="enable-background:new 0 0 96.4 96.4;" xml:space="preserve">
<style type="text/css">
	.st0{fill:#8DC63F;}
</style>
<g>
	<g>
		<path class="st0" d="M94.8,40.2H59.4v-4.8c0-0.9-0.7-1.6-1.6-1.6H53V17.7c0-4.4,3.6-8,8-8s8,3.6,8,8v3.2c0,0.9,0.7,1.6,1.6,1.6
			h6.4c0.9,0,1.6-0.7,1.6-1.6v-3.2C78.7,7.9,70.8,0,61,0S43.4,7.9,43.4,17.7v16.1h-4.8c-0.9,0-1.6,0.7-1.6,1.6v4.8H24.1
			c0.9,0,1.6-0.7,1.6-1.6v-4.7l1.6-16c0.1-0.9-0.6-1.7-1.4-1.8c-0.1,0-0.1,0-0.2,0h-9.6c-0.9,0-1.6,0.7-1.6,1.6c0,0.1,0,0.1,0,0.2
			l1.6,16v4.7c0,0.9,0.7,1.6,1.6,1.6H1.6c-0.9,0-1.6,0.7-1.6,1.6v6.4c0,0.9,0.7,1.6,1.6,1.6h1.7c0.9,14.4,12.8,25.7,27.2,25.7h6.4
			v9.6c0,6.2,5,11.2,11.2,11.2s11.2-5,11.2-11.2v-9.6h6.4c14.4,0,26.4-11.3,27.2-25.7h1.7c0.9,0,1.6-0.7,1.6-1.6v-6.4
			C96.4,40.9,95.7,40.2,94.8,40.2z M46.6,17.7c0-8,6.5-14.5,14.5-14.5c8,0,14.5,6.5,14.5,14.5v1.6h-3.2v-1.6c0-6.2-5-11.2-11.2-11.2
			c-6.2,0-11.2,5-11.2,11.2v16.1h-3.2V17.7z M40.2,36.9h16.1v3.2H40.2V36.9z M23.9,19.3l-1.3,12.9h-3.5l-1.3-12.9H23.9z M22.5,35.3
			v1.6h-3.2v-1.6H22.5z M56.2,85.1c0,4.4-3.6,8-8,8s-8-3.6-8-8v-9.6h16.1V85.1z M65.9,72.3H30.5c-12.7,0-23.2-9.8-24-22.5h83.4
			C89,62.4,78.5,72.3,65.9,72.3z M93.2,46.6h-90v-3.2h90V46.6z"/>
	</g>
</g>
</svg>
