<?xml version="1.0" encoding="utf-8"?>
<!-- Generator: Adobe Illustrator 20.0.0, SVG Export Plug-In . SVG Version: 6.00 Build 0)  -->
<svg version="1.1" id="Capa_1" xmlns="http://www.w3.org/2000/svg" xmlns:xlink="http://www.w3.org/1999/xlink" x="0px" y="0px"
	 viewBox="0 0 107.7 55.1" style="enable-background:new 0 0 107.7 55.1;" xml:space="preserve">
<style type="text/css">
	.st0{fill:#8BC441;}
</style>
<g>
	<path class="st0" d="M98.7,4.6H43.1V1H19.7v3.6H5.4C2.4,4.6,0,7,0,10c0,2.5,1.7,4.5,4,5.2l6.4,23c1.3,4.6,4.9,8,9.4,9.1v4h-18
		c-1,0-1.8,0.8-1.8,1.8s0.8,1.8,1.8,1.8h19.7h5.4h53.9h5.4h19.7c1,0,1.8-0.8,1.8-1.8s-0.8-1.8-1.8-1.8H88v-4
		c4.5-1.1,8.1-4.6,9.4-9.1l6.4-23c2.3-0.6,4-2.7,4-5.2c0-3-2.4-5.4-5.4-5.4 M102.3,8.2c1,0,1.8,0.8,1.8,1.8s-0.8,1.8-1.8,1.8H43.1
		V8.2H102.3z M39.5,4.6v7.2v3.6v9H23.3v-9v-3.6V4.6H39.5z M23.3,27.9h16.2v3.6H23.3V27.9z M5.4,8.2h14.4v3.6H5.4
		c-1,0-1.8-0.8-1.8-1.8S4.4,8.2,5.4,8.2z M13.8,37.1L7.7,15.4h12v9v10.8h23.3V24.3v-9H100l-6.1,21.8c-1.1,4.1-4.9,6.9-9.1,6.9h-7.6
		H30.5h-7.6C18.7,44.1,14.9,41.2,13.8,37.1z M76.1,47.7l1.8,3.6h-48l1.8-3.6H76.1z M23.3,51.3v-3.6h4.3l-1.8,3.6H23.3z M81.9,51.3
		l-1.8-3.6h4.3v3.6H81.9z"/>
</g>
</svg>
