<?xml version="1.0" encoding="utf-8"?>
<!-- Generator: Adobe Illustrator 20.0.0, SVG Export Plug-In . SVG Version: 6.00 Build 0)  -->
<svg version="1.1" id="Capa_1" xmlns="http://www.w3.org/2000/svg" xmlns:xlink="http://www.w3.org/1999/xlink" x="0px" y="0px"
	 viewBox="0 0 130.4 130.4" style="enable-background:new 0 0 130.4 130.4;" xml:space="preserve">
<style type="text/css">
	.st0{fill:#8BC441;}
</style>
<g>
	<g>
		<path class="st0" d="M21.7,115.9c-0.5-0.5-1.1-0.7-1.8-0.7c-0.7,0-1.3,0.3-1.8,0.7c-0.5,0.5-0.7,1.1-0.7,1.8s0.3,1.3,0.7,1.8
			c0.5,0.5,1.1,0.7,1.8,0.7c0.7,0,1.3-0.3,1.8-0.7c0.5-0.5,0.7-1.1,0.7-1.8S22.1,116.3,21.7,115.9z"/>
	</g>
</g>
<g>
	<g>
		<path class="st0" d="M119.6,46.6c-0.5-0.5-1.1-0.7-1.8-0.7c-0.7,0-1.3,0.3-1.8,0.7c-0.5,0.5-0.7,1.1-0.7,1.8s0.3,1.3,0.7,1.8
			c0.5,0.5,1.1,0.7,1.8,0.7c0.7,0,1.3-0.3,1.8-0.7c0.5-0.5,0.7-1.1,0.7-1.8S120.1,47.1,119.6,46.6z"/>
	</g>
</g>
<g>
	<g>
		<path class="st0" d="M129.6,0.7c-0.5-0.5-1.1-0.7-1.8-0.7L65.2,0c-1.4,0-2.5,1.1-2.5,2.5v7.3l-24.1,6.5c-1.4,0.4-2.2,1.8-1.8,3.1
			l12.5,46.7L38.4,76.9c-1.4-2-3.7-3.3-6.3-3.3H7.6C3.4,73.6,0,77,0,81.2v41.5c0,4.2,3.4,7.6,7.6,7.6h24.4c3.6,0,6.6-2.5,7.4-5.8
			l3,2.6c2.3,2,5.3,3.2,8.4,3.2h76.9c1.4,0,2.5-1.1,2.5-2.5V2.5C130.4,1.9,130.1,1.2,129.6,0.7z M34.6,122.8c0,1.4-1.1,2.5-2.5,2.5
			H7.6c-1.4,0-2.5-1.1-2.5-2.5V81.2c0-1.4,1.1-2.5,2.5-2.5h9.7V108c0,1.4,1.1,2.5,2.5,2.5s2.5-1.1,2.5-2.5V78.7h9.7
			c1.4,0,2.5,1.1,2.5,2.5L34.6,122.8L34.6,122.8z M42.3,20.6l20.4-5.5v9.4L60.9,25c-0.7,0.2-1.2,0.6-1.5,1.2
			c-0.3,0.6-0.4,1.3-0.3,1.9c1,3.7-1.2,7.4-4.8,8.4c-0.7,0.2-1.2,0.6-1.5,1.2c-0.3,0.6-0.4,1.3-0.3,1.9l9.9,36.8h-5.1l-2.6-10.3
			c-0.1-0.3-0.2-0.6-0.4-0.9L42.3,20.6z M62.7,36.2v21.5L58,40.5C59.9,39.5,61.5,38,62.7,36.2z M99.2,125.3H51l0,0
			c-1.9,0-3.7-0.7-5.1-1.9l-6.2-5.4V82.8l11.1-11.1l2,7.9c0.3,1.1,1.3,1.9,2.5,1.9l50.1,0c2,0,3.6,1.6,3.6,3.6s-1.6,3.6-3.6,3.6
			H79.7c-1.4,0-2.5,1.1-2.5,2.5c0,1.4,1.1,2.5,2.5,2.5h33.6c2,0,3.6,1.6,3.6,3.6c0,2-1.6,3.6-3.6,3.6H79.7c-1.4,0-2.5,1.1-2.5,2.5
			c0,1.4,1.1,2.5,2.5,2.5h28.2c2,0,3.6,1.6,3.6,3.6c0,2-1.6,3.6-3.6,3.6H79.7c-1.4,0-2.5,1.1-2.5,2.5c0,1.4,1.1,2.5,2.5,2.5h19.5
			c2,0,3.6,1.6,3.6,3.6C102.8,123.7,101.2,125.3,99.2,125.3z M125.3,125.3L125.3,125.3h-18.2c0.5-1.1,0.8-2.3,0.8-3.6
			s-0.3-2.5-0.8-3.6h0.8c4.8,0,8.7-3.9,8.7-8.7c0-1.4-0.3-2.7-0.9-3.9c3.7-1,6.4-4.4,6.4-8.3c0-1.9-0.6-3.7-1.7-5.2V59.9
			c0-1.4-1.1-2.5-2.5-2.5c-1.4,0-2.5,1.1-2.5,2.5v29c-0.6-0.1-1.2-0.2-1.9-0.2h-0.1c0.5-1.1,0.8-2.3,0.8-3.6c0-4.8-3.9-8.7-8.7-8.7
			h-4.1c4.3-1.9,7.4-6.2,7.4-11.2c0-6.7-5.5-12.2-12.2-12.2c-6.7,0-12.2,5.5-12.2,12.2c0,5,3.1,9.3,7.4,11.2H77.8V28
			c4.5-1,8.1-4.6,9.1-9.1h19.2c1,4.5,4.6,8.1,9.1,9.1v7.9c0,1.4,1.1,2.5,2.5,2.5c1.4,0,2.5-1.1,2.5-2.5V25.7c0-1.4-1.1-2.5-2.5-2.5
			c-3.8,0-6.9-3.1-6.9-6.9c0-1.4-1.1-2.5-2.5-2.5H84.7c-1.4,0-2.5,1.1-2.5,2.5c0,3.8-3.1,6.9-6.9,6.9c-1.4,0-2.5,1.1-2.5,2.5v50.7
			h-5V5.1l57.6,0V125.3z M96.5,72.3c-3.9,0-7.1-3.2-7.1-7.1c0-3.9,3.2-7.1,7.1-7.1c3.9,0,7.1,3.2,7.1,7.1
			C103.6,69.1,100.4,72.3,96.5,72.3z"/>
	</g>
</g>
</svg>
