<?xml version="1.0" encoding="utf-8"?>
<!-- Generator: Adobe Illustrator 20.0.0, SVG Export Plug-In . SVG Version: 6.00 Build 0)  -->
<svg version="1.1" id="Layer_1" xmlns="http://www.w3.org/2000/svg" xmlns:xlink="http://www.w3.org/1999/xlink" x="0px" y="0px"
	 viewBox="0 0 141.7 141.7" style="enable-background:new 0 0 141.7 141.7;" xml:space="preserve">
<style type="text/css">
	.st0{fill:#8BC441;}
</style>
<g>
	<path class="st0" d="M103.3,5.6L21.5,0.1c-2.7-0.2-5,1.8-5.2,4.5l-0.6,9.6H4.8C2.2,14.2,0,16.3,0,19v117.8c0,2.7,2.2,4.8,4.8,4.8
		h62.6c0.5,0,1.1-0.2,1.5-0.6l9.5-9.4c0.1,0,0.2,0,0.3,0l16.1,1.1c2.6,0.2,5-1.9,5.2-4.5l7.9-117.5C108,8.1,105.9,5.7,103.3,5.6
		L103.3,5.6z M69.5,134.5v-14.4c0-0.4,0.3-0.7,0.7-0.7h14.4L69.5,134.5z M95.8,128c-0.1,0.4-0.3,0.6-0.7,0.6l-12.8-0.9L91,119
		c0.4-0.4,0.6-0.9,0.6-1.5V19c0-2.7-2.2-4.8-4.8-4.8H65.2c-2.7,0-2.7,4.2,0,4.2h21.6c0.4,0,0.7,0.3,0.7,0.7v96.3H70.2
		c-2.7,0-4.8,2.2-4.8,4.8v17.4H4.8c-0.4,0-0.7-0.3-0.7-0.7V19c0-0.4,0.3-0.7,0.7-0.7h49.3c2.7,0,2.7-4.2,0-4.2H19.9l0.6-9.3
		c0.1-0.4,0.3-0.6,0.7-0.6L103,9.7c0.4,0.1,0.6,0.3,0.6,0.7L95.8,128z"/>
	<path class="st0" d="M74.1,65.6H17.5c-1.1,0-2.1,0.9-2.1,2.1s0.9,2.1,2.1,2.1h56.6c1.1,0,2.1-0.9,2.1-2.1S75.3,65.6,74.1,65.6z"/>
	<path class="st0" d="M74.1,80.1H17.5c-1.1,0-2.1,0.9-2.1,2.1s0.9,2.1,2.1,2.1h56.6c1.1,0,2.1-0.9,2.1-2.1S75.3,80.1,74.1,80.1z"/>
	<path class="st0" d="M15.4,53.2c0,1.1,0.9,2.1,2.1,2.1h56.6c1.1,0,2.1-0.9,2.1-2.1s-0.9-2.1-2.1-2.1H17.5
		C16.4,51.1,15.4,52.1,15.4,53.2z"/>
	<path class="st0" d="M25.4,38.7c0,1.1,0.9,2.1,2.1,2.1h36.7c1.1,0,2.1-0.9,2.1-2.1s-0.9-2.1-2.1-2.1H27.5
		C26.3,36.7,25.4,37.6,25.4,38.7z"/>
	<path class="st0" d="M53.9,121.5c-3.7,0-7.5,0-11.2,0c-1.3,0-2.5,0-3.8,0c-2.3,0-3.8-0.5-4.3-3c-0.4-2.1-3.4-1.8-4,0
		c-1.4,4.5-3.8,2.8-5.1-0.3c-1.3-3-1.7-6.4-2.2-9.7c-0.4-2.4-4-1.7-4.1,0.6c-0.1,3-0.4,5.9-1.1,8.8c-0.8,3-1.9,5.8-3.1,8.7
		c-1,2.5,3,3.5,4,1.1c1-2.5,2.1-5.1,2.8-7.7c1.4,3.4,4.4,7.3,8.6,5c0.8-0.4,1.5-1,2.1-1.7c2.2,2.5,5.4,2.3,8.5,2.3c4.3,0,8.7,0,13,0
		C56.6,125.6,56.6,121.5,53.9,121.5L53.9,121.5z"/>
	<path class="st0" d="M140.1,68.2c-1.1-1.1-2.6-1.6-4.1-1.7l-1.6,0v-3c0-1.8-1.1-3.7-2.6-4.7v-4.2c0-8.6-13.4-8.6-13.4,0V59
		c-1.6,1-2.6,2.7-2.6,4.7v3c-6.9,0.5-6.9,11,0,11.4c0,9.3,0,18.4,0,27.9c0,2.6,4.1,2.8,4.2,0c0-9.5,0.1-18.6,0-27.9l10.3-0.1
		c0,0,0,30.7,0,44.5c0,6.7-10.3,6.8-10.3-0.1l0-3.8c0.2-2.7-4-2.9-4.1-0.3v3.6c0,3,0.9,5.6,2.8,7.4c0.2,4.3,2,8.5,5.1,11.6
		c0.9,0.9,2.1,0.6,3-0.1c3.1-3.2,4.9-7.3,5-11.7c1.4-1.4,2.7-2.7,2.7-7.4l0-18.9c3.6,1,7.3-1.8,7.3-5.5V72.3
		C141.7,70.7,141.1,69.3,140.1,68.2L140.1,68.2z M119.9,66.6v-3c0-0.6,0.4-1.1,1-1.3l8.3,0c0.2,0.1,0.4,0.2,0.6,0.3
		c0.3,0.3,0.4,0.6,0.4,0.9v3L119.9,66.6z M125.1,52.2c1.3,0,2.5,1.2,2.5,2.5v3.4l-5.1,0v-3.4C122.6,53.4,123.7,52.2,125.1,52.2
		L125.1,52.2z M125.1,136.4c-1-1.4-1.7-2.9-2.1-4.5c0.6,0.1,1.3,0.2,1.9,0.2c0.7,0,1.5-0.1,2.2-0.3
		C126.8,133.4,126.1,135,125.1,136.4z M137.6,97.4c0,2-3.2,2.1-3.2,0c0,0,0-19.6,0-21.4c0-1.2-1-2.1-2.1-2.1L116.2,74
		c-2,0-2-3.1,0-3.1l19.8-0.1c1,0.1,1.5,0.6,1.6,1.6L137.6,97.4L137.6,97.4z"/>
</g>
</svg>
