<?xml version="1.0" encoding="utf-8"?>
<!-- Generator: Adobe Illustrator 20.0.0, SVG Export Plug-In . SVG Version: 6.00 Build 0)  -->
<svg version="1.1" id="Layer_1" xmlns="http://www.w3.org/2000/svg" xmlns:xlink="http://www.w3.org/1999/xlink" x="0px" y="0px"
	 viewBox="0 0 45.4 45.4" style="enable-background:new 0 0 45.4 45.4;" xml:space="preserve">
<style type="text/css">
	.st0{fill:#D7D7D7;}
</style>
<g>
	<g>
		<path class="st0" d="M44.8,0.5c-0.7-0.7-1.9-0.7-2.6,0L0.5,42.2c-0.7,0.7-0.7,1.9,0,2.6c0.4,0.4,0.8,0.5,1.3,0.5s0.9-0.2,1.3-0.5
			L44.8,3.1C45.5,2.4,45.5,1.3,44.8,0.5z"/>
	</g>
</g>
<g>
	<g>
		<path class="st0" d="M44.8,42.2L3.1,0.5c-0.7-0.7-1.9-0.7-2.6,0c-0.7,0.7-0.7,1.9,0,2.6l41.7,41.7c0.4,0.4,0.8,0.5,1.3,0.5
			s0.9-0.2,1.3-0.5C45.5,44.1,45.5,42.9,44.8,42.2z"/>
	</g>
</g>
</svg>
