<?xml version="1.0" encoding="utf-8"?>
<!-- Generator: Adobe Illustrator 20.0.0, SVG Export Plug-In . SVG Version: 6.00 Build 0)  -->
<svg version="1.1" id="Слой_1" xmlns="http://www.w3.org/2000/svg" xmlns:xlink="http://www.w3.org/1999/xlink" x="0px" y="0px"
	 viewBox="0 0 377 362.8" style="enable-background:new 0 0 377 362.8;" xml:space="preserve">
<style type="text/css">
	.st0{fill:#EEEEEE;}
</style>
<path class="st0" d="M137.5,277.8V351c0,5.1,3.3,9.6,8.1,11.2c1.2,0.4,2.5,0.6,3.7,0.6c3.7,0,7.2-1.7,9.5-4.8l42.6-58.2L137.5,277.8
	z"/>
<path class="st0" d="M372.1,2.2c-3.6-2.6-8.4-2.9-12.3-0.9L6.3,186.7c-4.2,2.2-6.6,6.7-6.3,11.4c0.4,4.7,3.5,8.8,7.9,10.3l98.3,33.7
	L315.5,62.4L153.6,258.4l164.7,56.5c1.2,0.4,2.5,0.6,3.8,0.6c2.1,0,4.3-0.6,6.1-1.7c3-1.8,5-4.9,5.5-8.4l43.2-291.8
	C377.5,9.2,375.7,4.8,372.1,2.2z"/>
</svg>
