<svg id="Слой_1" data-name="Слой 1" xmlns="http://www.w3.org/2000/svg" viewBox="0 0 571.91 501.59"><defs><style>.cls-1{fill:#eee;}</style></defs><title>communications for thanks</title><path class="cls-1" d="M137.45,336.15v73.17a11.77,11.77,0,0,0,21.27,7l42.62-58.24Z" transform="translate(0 -58.31)"/><path class="cls-1" d="M372.06,60.5a11.74,11.74,0,0,0-12.28-.85L6.33,245A11.86,11.86,0,0,0,8,266.7l98.26,33.73L315.48,120.75,153.55,316.66l164.67,56.52a12,12,0,0,0,3.8.63,11.78,11.78,0,0,0,11.66-10.08l43.2-291.84A11.87,11.87,0,0,0,372.06,60.5Z" transform="translate(0 -58.31)"/><path class="cls-1" d="M430.13,514.74v38.89a6.29,6.29,0,0,0,4.32,6,6.4,6.4,0,0,0,2,.32,6.28,6.28,0,0,0,5.07-2.55l22.74-30.92Z" transform="translate(0 -58.31)"/><path class="cls-1" d="M555.36,368.32a6.36,6.36,0,0,0-6.57-.48l-188.7,98.5a6.3,6.3,0,0,0,.85,11.53l52.47,17.9L525.14,400.3,438.72,504.44l87.92,30a6.48,6.48,0,0,0,2,.32,6.39,6.39,0,0,0,3.26-.9,6.21,6.21,0,0,0,2.94-4.46l23.06-155A6.37,6.37,0,0,0,555.36,368.32Z" transform="translate(0 -58.31)"/><path class="cls-1" d="M489.08,173.18v25.74a4.16,4.16,0,0,0,2.8,3.94,4,4,0,0,0,4.57-1.48l14.73-20.46Z" transform="translate(0 -58.31)"/><path class="cls-1" d="M570.21,76.28A4,4,0,0,0,566,76L443.7,141.15a4.2,4.2,0,0,0,.55,7.63l34,11.85,72.38-63.18-56,68.91,57,19.86a4.06,4.06,0,0,0,5.33-3.34L571.87,80.29A4.26,4.26,0,0,0,570.21,76.28Z" transform="translate(0 -58.31)"/></svg>