<?xml version="1.0" encoding="utf-8"?>
<!-- Generator: Adobe Illustrator 20.0.0, SVG Export Plug-In . SVG Version: 6.00 Build 0)  -->
<svg version="1.1" id="Layer" xmlns="http://www.w3.org/2000/svg" xmlns:xlink="http://www.w3.org/1999/xlink" x="0px" y="0px"
	 viewBox="0 0 51 56.7" style="enable-background:new 0 0 51 56.7;" xml:space="preserve">
<style type="text/css">
	.st0{fill:#8DC63F;}
</style>
<path class="st0" d="M50.3,44.4c-1-0.9-2.6-0.9-3.6,0l-4.6,4.2V2.4C42.1,1.1,41,0,39.5,0C38.1,0,37,1.1,37,2.4v46.3l-4.6-4.2
	c-1-0.9-2.6-0.9-3.6,0s-1,2.4,0,3.3l8.9,8.3c0.5,0.5,1.2,0.7,1.8,0.7c0.7,0,1.3-0.2,1.8-0.7l8.9-8.3C51.3,46.8,51.3,45.3,50.3,44.4
	L50.3,44.4z"/>
<path class="st0" d="M18.6,44.4L14,48.6V2.4C14,1.1,12.9,0,11.5,0S8.9,1.1,8.9,2.4v46.3l-4.6-4.2c-1-0.9-2.6-0.9-3.6,0
	c-1,0.9-1,2.4,0,3.3L9.7,56c0.5,0.5,1.2,0.7,1.8,0.7c0.7,0,1.3-0.2,1.8-0.7l8.9-8.3c1-0.9,1-2.4,0-3.3
	C21.2,43.5,19.6,43.5,18.6,44.4L18.6,44.4z"/>
</svg>
