<?xml version="1.0" encoding="utf-8"?>
<!-- Generator: Adobe Illustrator 20.0.0, SVG Export Plug-In . SVG Version: 6.00 Build 0)  -->
<svg version="1.1" id="Capa_1" xmlns="http://www.w3.org/2000/svg" xmlns:xlink="http://www.w3.org/1999/xlink" x="0px" y="0px"
	 viewBox="0 0 50 51" style="enable-background:new 0 0 50 51;" xml:space="preserve">
<style type="text/css">
	.st0{fill:#C2C2C2;}
</style>
<g>
	<g>
		<g>
			<path class="st0" d="M29.9,7.6c0-2.7-2.2-4.8-4.9-4.8s-4.9,2.2-4.9,4.8v16.1c-4.5,0-8.1,3.6-8.1,8v8.6l6.5,8V51h3.2v-3.8l-6.5-8
				v-7.5c0-2.7,2.2-4.8,4.9-4.8v11.3h3.2V7.6C23.4,6.7,24.1,6,25,6s1.6,0.7,1.6,1.6v14.1l5.3,1.4l0.9-3.1l-2.9-0.8L29.9,7.6z"/>
			<polygon class="st0" points="38.2,24.8 35.1,24 35.9,20.9 39,21.7 			"/>
			<polygon class="st0" points="41.3,25.6 44.5,26.5 44.5,40.8 39.6,47.2 39.6,51 42.8,51 42.8,48.3 47.7,41.9 47.7,24 42.2,22.5 
							"/>
			<polygon class="st0" points="8.3,2.3 6,0 0,6 6,11.9 8.3,9.7 6.2,7.6 10.4,7.6 10.4,4.4 6.2,4.4 			"/>
			<rect x="13.6" y="4.4" class="st0" width="3.2" height="3.2"/>
			<polygon class="st0" points="41.7,9.7 44,11.9 50,6 44,0 41.7,2.3 43.8,4.4 39.6,4.4 39.6,7.6 43.8,7.6 			"/>
			<rect x="33.1" y="4.4" class="st0" width="3.2" height="3.2"/>
		</g>
	</g>
</g>
</svg>
