<svg id="Слой_1" data-name="Слой 1" xmlns="http://www.w3.org/2000/svg" xmlns:xlink="http://www.w3.org/1999/xlink" viewBox="0 0 340.16 308.84"><defs><style>.cls-1{fill:#fff;}.cls-2{clip-path:url(#clip-path);}</style><clipPath id="clip-path" transform="translate(0 0)"><path class="cls-1" d="M158.82,77.7q-1.26-.46-2.49-1l1.14-.52q.66.77,1.34,1.52M170.29,80a39.77,39.77,0,0,1-5.49-.66q-2.25-2.11-4.31-4.42,2-.78,4.06-1.43A70.45,70.45,0,0,0,170.3,80Zm9.54-.66a39.76,39.76,0,0,1-5.08.64,67.29,67.29,0,0,1-7-7.4q2.58-.67,5.24-1.14a70.39,70.39,0,0,0,6.85,7.9Zm8-2.44a39.43,39.43,0,0,1-4.43,1.58,67.3,67.3,0,0,1-6.88-7.56q3-.36,6-.45a70.55,70.55,0,0,0,5.32,6.43Zm7.17-4a39.88,39.88,0,0,1-4.23,2.57q-2.32-2.41-4.39-5a66.87,66.87,0,0,1,7.13.57c.49.63,1,1.3,1.49,1.89Zm-39.58.77q-1.31.6-2.59,1.26a40,40,0,0,1-5.81-4q2.22-1.43,4.55-2.69,1.81,2.85,3.86,5.46Zm7.18-2.84q-2.15.71-4.23,1.56a67.58,67.58,0,0,1-4-5.54q2.2-1.06,4.49-2a61.86,61.86,0,0,0,3.75,6ZM171,68.61q-2.7.53-5.32,1.27a67.55,67.55,0,0,1-3.95-6.06q2.68-.91,5.47-1.59a70.36,70.36,0,0,0,3.81,6.41Zm9.36-1.19q-3,.18-6,.61a67.4,67.4,0,0,1-4-6.5q3-.58,6.09-.89a70.31,70.31,0,0,0,3.91,6.81Zm10.7.18q-3.23-.3-6.54-.3h-.5a67.32,67.32,0,0,1-4.22-6.9q1.63-.08,3.29-.08,1.91,0,3.79.11a70.42,70.42,0,0,0,4.18,7.2Zm11.3-1.36q-1.23,1.42-2.6,2.73-2.26-.5-4.57-.86a67.32,67.32,0,0,1-4.65-7.38,66.32,66.32,0,0,1,9.51,1.77q1.1,1.94,2.31,3.77ZM150,65.64q-2.74,1.48-5.32,3.2a40.18,40.18,0,0,1-4.78-5.5,66.81,66.81,0,0,1,6.55-4.58A70,70,0,0,0,150,65.64Zm7.41-3.47q-2.37.94-4.65,2.05a67,67,0,0,1-3.58-7q2.42-1.33,5-2.47a70.19,70.19,0,0,0,3.18,7.42Zm8.48-2.76q-2.83.72-5.56,1.67A66.93,66.93,0,0,1,157,53.54q2.82-1.11,5.77-2a69.91,69.91,0,0,0,3.08,7.87Zm9.23-1.7q-3.11.36-6.14,1a66.89,66.89,0,0,1-3.2-7.9q3.09-.74,6.29-1.18a70,70,0,0,0,3,8.07Zm10.35-.43h-2.28q-2.42,0-4.8.16a67.1,67.1,0,0,1-3.19-8.15q3-.27,6.08-.27h1.12a69.92,69.92,0,0,0,3,8.26Zm12.72,1.59A69.52,69.52,0,0,0,189,57.48a67.06,67.06,0,0,1-3.3-8.35,66.49,66.49,0,0,1,8.95,1.2,70.06,70.06,0,0,0,3.52,8.53Zm9.94-1.13q-.87,1.76-1.89,3.41-2-.7-4-1.27a66.94,66.94,0,0,1-4-8.72,66.24,66.24,0,0,1,8.18,2.73q.73,1.95,1.66,3.84Zm-62.85-1.85a70,70,0,0,0-7.05,4.87,39.93,39.93,0,0,1-2.56-5,67.14,67.14,0,0,1,7.56-5.91,59.68,59.68,0,0,0,2,6Zm7.85-4.09A53.19,53.19,0,0,0,148,54.34a54.89,54.89,0,0,1-2-6.21q2.63-1.59,5.4-2.94a46.53,46.53,0,0,0,1.69,6.6Zm8.74-3.18q-3,.87-5.87,2a66.55,66.55,0,0,1-1.75-6.75q3-1.26,6-2.24a69.77,69.77,0,0,0,1.58,7Zm9.34-2q-3.22.47-6.34,1.22a66.73,66.73,0,0,1-1.58-7.07q3.17-.84,6.46-1.37a69.72,69.72,0,0,0,1.42,7.2Zm10.32-.72h-.26q-3.52,0-7,.34a66.46,66.46,0,0,1-1.5-7.26,67.27,67.27,0,0,1,7.29-.43,69.85,69.85,0,0,0,1.43,7.32Zm12,1.08a69.81,69.81,0,0,0-8.81-1,66.47,66.47,0,0,1-1.51-7.37,66.74,66.74,0,0,1,8.63.93,69.63,69.63,0,0,0,1.67,7.41Zm11.33,3A69.09,69.09,0,0,0,197,47.66a66.8,66.8,0,0,1-1.88-7.49,66.13,66.13,0,0,1,7.58,2.2A69.68,69.68,0,0,0,204.84,50Zm6.83-3.64a39.9,39.9,0,0,1-1.39,5.86l-1.59-.71a66.7,66.7,0,0,1-2.54-7.78Q209,44.92,211.69,46.34Zm-69.35.32a70.12,70.12,0,0,0-7.89,6,39.84,39.84,0,0,1-1.38-5.41,67.08,67.08,0,0,1,8.11-6.6q.45,3.06,1.17,6ZM150.71,42q-2.87,1.35-5.59,2.94-.68-3-1.08-6.19a66.67,66.67,0,0,1,5.89-3.24q.25,3.31.79,6.51Zm9.07-3.51q-3.14,1-6.14,2.22-.5-3.24-.69-6.56a66,66,0,0,1,6.31-2.32q.11,3.39.52,6.68Zm9.52-2.21q-3.31.53-6.51,1.36-.39-3.3-.46-6.68a66.2,66.2,0,0,1,6.59-1.35c0,2.27.16,4.49.39,6.69Zm10.39-.87a70.31,70.31,0,0,0-7.32.45A66.58,66.58,0,0,1,172,29.2a67.23,67.23,0,0,1,7-.36h.37q0,3.33.31,6.58Zm11.65.86a70,70,0,0,0-8.54-.82q-.32-3.22-.33-6.52a66.7,66.7,0,0,1,8.37,1q.16,3.21.51,6.36ZM202,38.84a69.21,69.21,0,0,0-7.42-2q-.43-3.12-.57-6.33a66.1,66.1,0,0,1,7.2,2.09A54.64,54.64,0,0,0,202,38.84Zm10.16-1.19c0,.78.07,1.57.07,2.37q0,1.53-.11,3a69.4,69.4,0,0,0-6.74-3q-.61-3-.94-6.17a66.41,66.41,0,0,1,7.68,3.81Zm-71.36-.46a70.2,70.2,0,0,0-8.19,6.3q-.15-1.72-.15-3.47,0-1.51.11-3a67.09,67.09,0,0,1,7.9-6.24,61.72,61.72,0,0,0,.29,6.41Zm9-5a68.17,68.17,0,0,0-6.07,3.18q-.24-3.23-.17-6.54a66.45,66.45,0,0,1,6.38-3.36v.17a59.5,59.5,0,0,0-.16,6.53Zm9.46-3.57q-3.26,1-6.39,2.23,0-2.48.15-5,.06-.88.14-1.75a66.09,66.09,0,0,1,6.52-2.2q-.17,1.5-.27,3-.15,1.86-.18,3.7ZM169,26.47q-3.37.49-6.62,1.29c0-.88.06-1.76.12-2.65q.14-2,.4-4a66.22,66.22,0,0,1,6.64-1.16c-.18,1.43-.33,2.87-.43,4.32A14.54,14.54,0,0,0,169,26.47Zm10.47-.72H179q-3.51,0-6.93.34a15.3,15.3,0,0,1,.09-1.65q.16-2.45.5-4.84,2.47-.18,5-.18H180c-.2,1.51-.36,3-.46,4.58q-.06.9-.09,1.75Zm11.37,1a69.71,69.71,0,0,0-8.28-.91c0-.53.05-1.06.09-1.59q.16-2.33.47-4.61a66.45,66.45,0,0,1,8,1.15c-.07.7-.13,1.4-.17,2.1-.07,1.29-.11,2.58-.13,3.86ZM201,29.29a69.14,69.14,0,0,0-7.09-2c0-1.41.05-2.83.15-4.25q.05-.81.13-1.61A66.09,66.09,0,0,1,201,23.63Q200.88,26.48,201,29.29Zm9.38-1.3a39.86,39.86,0,0,1,1.37,5.91,69.49,69.49,0,0,0-7.6-3.48q-.14-2.75-.06-5.55A66.54,66.54,0,0,1,210.35,28Zm-69.85-1a70.11,70.11,0,0,0-7.38,5.35,39.8,39.8,0,0,1,2.3-7.68,67.14,67.14,0,0,1,5.63-4c-.22,1.63-.4,3.27-.51,4.94,0,.52,0,1-.07,1.49Zm9.75-5.13a69.58,69.58,0,0,0-6.53,3.21q.26-3.33.82-6.56a66.38,66.38,0,0,1,6.84-3.34q-.74,3.34-1.15,6.74Zm9.85-3.37q-3.34.87-6.55,2a67.26,67.26,0,0,1,1.33-6.73,66,66,0,0,1,6.6-2q-.87,3.36-1.41,6.73ZM170,16.73q-3.36.37-6.62,1a67.49,67.49,0,0,1,1.51-6.59,65.92,65.92,0,0,1,6.54-.88Q170.57,13.46,170,16.73Zm10.48-.39q-1.4-.06-2.82-.06-2.25,0-4.47.14.61-3.23,1.51-6.33h2.38q2.4,0,4.76.17A58.13,58.13,0,0,0,180.48,16.34Zm11,1.32a69.56,69.56,0,0,0-7.92-1.13q.56-3.06,1.39-6a66.33,66.33,0,0,1,7.6,1.35q-.62,2.87-1,5.81Zm9.72,2.71a69.16,69.16,0,0,0-6.69-2q.4-2.89,1-5.69a66.08,66.08,0,0,1,6.38,2.2q-.4,2.73-.66,5.53Zm3.55-3.61a40,40,0,0,1,3.89,6.79q-2.18-1.08-4.44-2,.24-2.4.59-4.76Zm-8-8.42q1.37,1.06,2.64,2.24-1.49-.5-3-.94C196.45,9.23,196.58,8.8,196.71,8.34ZM187.57,3A39.71,39.71,0,0,1,194,6.47c-.25.8-.49,1.6-.71,2.41a69.41,69.41,0,0,0-7.43-1.35q.8-2.29,1.71-4.49ZM178.34.43a39.42,39.42,0,0,1,6.32,1.5q-1.06,2.57-1.91,5.24-2.8-.23-5.67-.23H175.7A66.66,66.66,0,0,1,178.34.45ZM141.77,16.58q-1.58.93-3.1,1.94a40.16,40.16,0,0,1,3.78-5Q142.07,15,141.77,16.58Zm10.54-5.07a69.37,69.37,0,0,0-6.93,3.08q.66-2.76,1.54-5.43A39.9,39.9,0,0,1,154.85,4a69.77,69.77,0,0,0-2.55,7.48Zm10.15-3a67.06,67.06,0,0,0-6.55,1.74A66.7,66.7,0,0,1,159,2.34,39.45,39.45,0,0,1,165.52.63a69.57,69.57,0,0,0-3.07,7.88ZM172.31,0q1.41,0,2.79.1a69.82,69.82,0,0,0-2.72,7q-3.27.22-6.46.73A66.7,66.7,0,0,1,169.11.09Q170.7,0,172.3,0Zm83.75,155.46q-2-.72-3.92-1.57l1.8-.82,2.11,2.39Zm18.09,3.62a62.7,62.7,0,0,1-8.65-1q-3.55-3.32-6.79-7,3.15-1.22,6.4-2.25a111,111,0,0,0,9,10.25Zm15-1a62.71,62.71,0,0,1-8,1,106.08,106.08,0,0,1-11-11.66q4.07-1.06,8.25-1.79A111,111,0,0,0,289.17,158Zm12.6-3.84a62.2,62.2,0,0,1-7,2.49,106.06,106.06,0,0,1-10.85-11.91q4.65-.56,9.43-.71a111.21,111.21,0,0,0,8.45,10.09ZM313,148a62.7,62.7,0,0,1-6.66,4q-3.65-3.8-6.92-7.95a105.56,105.56,0,0,1,11.24.91c.79,1,1.57,2,2.37,3Zm-62.38,1.21-4.09,2a63,63,0,0,1-9.15-6.27q3.49-2.26,7.17-4.24,2.87,4.35,6.1,8.47ZM262,144.69q-3.38,1.12-6.66,2.46a106.43,106.43,0,0,1-6.34-8.74q3.47-1.66,7.07-3.08Q258.81,140.16,262,144.69Zm13.32-3.51q-4.25.84-8.38,2a106.49,106.49,0,0,1-6.22-9.55q4.23-1.43,8.62-2.51a110.89,110.89,0,0,0,6,10.06Zm14.76-1.84q-4.78.28-9.45,1a106.29,106.29,0,0,1-6.33-10.24q4.73-.92,9.6-1.4A111,111,0,0,0,290.08,139.34Zm16.86.29q-5.09-.48-10.3-.48h-.79a106,106,0,0,1-6.65-10.88q2.57-.13,5.18-.13,3,0,6,.17a110.91,110.91,0,0,0,6.56,11.28Zm17.81-2.14q-2,2.24-4.09,4.3-3.56-.8-7.21-1.36a106.08,106.08,0,0,1-7.34-11.63,104.44,104.44,0,0,1,15,2.79q1.72,3,3.64,5.87Zm-82.68-1q-4.31,2.34-8.38,5a63.41,63.41,0,0,1-7.47-8.65,105.45,105.45,0,0,1,10.32-7.21,110.49,110.49,0,0,0,5.53,10.83ZM253.74,131q-3.73,1.49-7.32,3.24a105.65,105.65,0,0,1-5.64-11.05q3.82-2.1,7.82-3.89A110.57,110.57,0,0,0,253.75,131Zm13.37-4.36q-4.46,1.14-8.77,2.64a105.56,105.56,0,0,1-5.22-12q4.45-1.74,9.1-3.09a110.18,110.18,0,0,0,4.89,12.38ZM281.65,124q-4.91.57-9.67,1.56a105.3,105.3,0,0,1-5-12.45q4.87-1.16,9.91-1.86a110.3,110.3,0,0,0,4.77,12.72Zm16.31-.67q-1.79-.06-3.59-.06-3.81,0-7.56.26a105.56,105.56,0,0,1-5-12.84q4.73-.43,9.58-.43h1.76a110.26,110.26,0,0,0,4.85,13Zm20,2.5a109.49,109.49,0,0,0-14.53-2.18,105.67,105.67,0,0,1-5.2-13.17,104.82,104.82,0,0,1,14.1,1.89A110.49,110.49,0,0,0,318,125.77ZM333.63,124a58.87,58.87,0,0,1-3,5.38q-3.13-1.1-6.34-2A105.4,105.4,0,0,1,318,113.63a104.33,104.33,0,0,1,12.89,4.3q1.33,3.08,2.79,6.07Zm-99-2.92a110.29,110.29,0,0,0-11.11,7.68,62.92,62.92,0,0,1-4-7.86,105.81,105.81,0,0,1,11.91-9.32q1.37,4.8,3.2,9.46ZM247,114.63q-4.14,1.83-8.09,4-1.84-4.79-3.22-9.79,4.14-2.5,8.52-4.63Q245.36,109.51,247,114.63Zm13.78-5q-4.72,1.37-9.26,3.13a104.85,104.85,0,0,1-2.76-10.64,99.73,99.73,0,0,1,9.52-3.53,109.9,109.9,0,0,0,2.51,11Zm14.72-3.18q-5.08.73-10,1.93A105.17,105.17,0,0,1,263,97.22q5-1.32,10.18-2.16a109.88,109.88,0,0,0,2.32,11.38Zm16.27-1.11h-.41q-5.55,0-11,.54A104.89,104.89,0,0,1,278,94.4a105.86,105.86,0,0,1,11.49-.67A110,110,0,0,0,291.77,105.34Zm19,1.7a110.06,110.06,0,0,0-13.89-1.57,104.65,104.65,0,0,1-2.38-11.62,105.07,105.07,0,0,1,13.59,1.46,109.77,109.77,0,0,0,2.63,11.7Zm17.85,4.77a109.09,109.09,0,0,0-12.42-3.66,105.12,105.12,0,0,1-3-11.81,104.12,104.12,0,0,1,12,3.47,109.78,109.78,0,0,0,3.43,12Zm10.8-5.71a62.85,62.85,0,0,1-2.19,9.23q-1.24-.57-2.5-1.11a104.9,104.9,0,0,1-4-12.26q4.41,1.84,8.64,4.11Zm-109.3.5A110.58,110.58,0,0,0,217.68,116a62.84,62.84,0,0,1-2.18-8.53,105.75,105.75,0,0,1,12.79-10.4q.71,4.8,1.79,9.49Zm13.19-7.36q-4.52,2.13-8.8,4.64-1.07-4.8-1.7-9.75A104.91,104.91,0,0,1,242.09,89a99.9,99.9,0,0,0,1.18,10.2Zm14.29-5.53q-4.94,1.52-9.68,3.49-.79-5.1-1.09-10.34a104.22,104.22,0,0,1,9.94-3.65,103.1,103.1,0,0,0,.79,10.48Zm15-3.49q-5.21.83-10.26,2.14-.62-5.2-.73-10.53A104.36,104.36,0,0,1,272,79.68a101.76,101.76,0,0,0,.57,10.52ZM289,88.86a110.79,110.79,0,0,0-11.53.71q-.53-5.18-.55-10.48a105.89,105.89,0,0,1,11-.57h.58q0,5.19.48,10.31Zm18.36,1.36a110.29,110.29,0,0,0-13.45-1.3q-.5-5.08-.52-10.27a105.12,105.12,0,0,1,13.19,1.51q.14,5.06.76,10Zm16.73,4a109,109,0,0,0-11.69-3.11q-.68-4.92-.9-10a104.27,104.27,0,0,1,11.34,3.29q.39,4.94,1.19,9.82ZM340,92.34c.07,1.23.11,2.48.11,3.73q0,2.41-.18,4.78A109.37,109.37,0,0,0,329.3,96.1a90.83,90.83,0,0,1-1.48-9.73A104.69,104.69,0,0,1,340,92.34Zm-112.47-.73a110.65,110.65,0,0,0-12.91,9.93q-.23-2.7-.23-5.47,0-2.37.17-4.7A105.79,105.79,0,0,1,227,81.53q.09,5.1.58,10.09Zm14.21-7.91q-4.92,2.28-9.56,5-.38-5.1-.27-10.3A104.83,104.83,0,0,1,242,73.12v.27c-.23,3.47-.3,7-.21,10.32Zm14.91-5.62q-5.14,1.52-10.07,3.52,0-3.91.24-7.88.09-1.39.22-2.77a104.16,104.16,0,0,1,10.27-3.47c-.17,1.58-.32,3.16-.43,4.76q-.14,2.94-.18,5.84ZM272,74.72q-5.31.77-10.44,2c0-1.39.1-2.78.19-4.18.14-2.14.36-4.27.63-6.37a104.5,104.5,0,0,1,10.52-1.83c-.29,2.25-.52,4.52-.67,6.81-.08,1.19-.14,2.4-.18,3.57Zm16.5-1.13h-.67q-5.53,0-10.93.54.06-1.3.14-2.6.26-3.86.79-7.63,3.89-.29,7.86-.29,1.85,0,3.69.06-.48,3.57-.73,7.22,0,1.35-.1,2.7Zm17.92,1.57a109.93,109.93,0,0,0-13-1.43c0-.83.08-1.67.14-2.5q.25-3.68.74-7.27a104.67,104.67,0,0,1,12.7,1.8c-.11,1.1-.2,2.2-.28,3.31q-.21,3.06-.24,6.09Zm16,4a109,109,0,0,0-11.13-3.05c0-2.22.08-4.46.23-6.7q.08-1.27.2-2.53a104.2,104.2,0,0,1,10.76,3.38q-.14,4.48,0,8.9Zm14.78-2a62.86,62.86,0,0,1,2.16,9.31,109.44,109.44,0,0,0-12-5.48q-.23-4.34-.1-8.75a104.77,104.77,0,0,1,10,4.87Zm-110.09-1.5a110.52,110.52,0,0,0-11.59,8.41A62.71,62.71,0,0,1,219.15,72,105.72,105.72,0,0,1,228,65.57q-.53,3.85-.8,7.78c0,.73,0,1.5-.06,2.26Zm15.37-8.08a109.54,109.54,0,0,0-10.3,5.06q.4-5.26,1.3-10.35A104.59,104.59,0,0,1,244.26,57q-1.07,5.14-1.71,10.5ZM258,62.27a107.81,107.81,0,0,0-10.32,3.24,106.08,106.08,0,0,1,2.1-10.6,104.21,104.21,0,0,1,10.4-3.08q-1.27,5.08-2.11,10.4Zm15.66-2.93q-5.3.58-10.44,1.66a106.27,106.27,0,0,1,2.38-10.38q5.07-.94,10.31-1.39Q274.56,54.22,273.66,59.34Zm16.53-.57q-2.21-.09-4.44-.09-3.55,0-7,.22,1-5.09,2.38-10,1.87-.07,3.76-.07,3.79,0,7.51.27-1.35,4.79-2.22,9.7Zm17.39,2.09a109.54,109.54,0,0,0-12.48-1.78q.88-4.83,2.19-9.49a104.53,104.53,0,0,1,12,2.13q-1.06,4.52-1.72,9.16Zm15.32,4.28a109,109,0,0,0-10.54-3.2q.63-4.56,1.62-9a104.31,104.31,0,0,1,10,3.52q-.71,4.29-1.11,8.7Zm5.6-5.69a63,63,0,0,1,6.14,10.71q-3.43-1.71-7-3.18.3-3.79.85-7.51ZM315.75,46.18q2.16,1.68,4.16,3.53-2.35-.79-4.75-1.48C315.35,47.55,315.55,46.86,315.75,46.18Zm-14.4-8.4a62.63,62.63,0,0,1,10.21,5.41c-.39,1.26-.78,2.52-1.13,3.8a109.26,109.26,0,0,0-11.71-2.13q1.2-3.6,2.64-7.07ZM286.8,33.71a62.25,62.25,0,0,1,10,2.37q-1.67,4-3,8.26-4.42-.36-8.93-.36h-2.19a105.23,105.23,0,0,1,4.13-10.26ZM229.16,59.13q-2.48,1.46-4.88,3.05a63.33,63.33,0,0,1,6-7.92Q229.65,56.68,229.16,59.13Zm16.61-8A109.38,109.38,0,0,0,234.84,56q1-4.35,2.42-8.56a62.89,62.89,0,0,1,12.5-8.09,109.87,109.87,0,0,0-4,11.81Zm16-4.73q-5.26,1.13-10.32,2.74a105.07,105.07,0,0,1,4.81-12.54,62.22,62.22,0,0,1,10.28-2.7,109.88,109.88,0,0,0-4.77,12.52ZM277.3,33q2.22,0,4.4.15a110.13,110.13,0,0,0-4.28,11.08q-5.16.34-10.18,1.16a105,105,0,0,1,5-12.19Q274.76,33,277.3,33ZM74.69,302.34q-3.57-1.29-7-2.81,1.61-.76,3.24-1.48Q72.76,300.22,74.69,302.34Zm32.46,6.5A112.52,112.52,0,0,1,91.62,307q-6.38-6-12.18-12.49,5.66-2.2,11.49-4A199.32,199.32,0,0,0,107.15,308.84Zm27-1.88a112.51,112.51,0,0,1-14.36,1.81A190.35,190.35,0,0,1,100,287.84q7.3-1.9,14.82-3.22A199.19,199.19,0,0,0,134.14,307Zm22.62-6.89a111.77,111.77,0,0,1-12.53,4.46,190.38,190.38,0,0,1-19.47-21.38q8.35-1,16.92-1.28a199.7,199.7,0,0,0,15.07,18.2ZM177,288.86a112.67,112.67,0,0,1-12,7.26q-6.56-6.82-12.42-14.26a189.28,189.28,0,0,1,20.16,1.63C174.2,285.34,175.61,287.09,177,288.86ZM65.09,291q-3.71,1.71-7.34,3.57a113,113,0,0,1-16.42-11.26q6.27-4,12.86-7.61Q59.28,283.64,65.09,291Zm20.3-8q-6.07,2-12,4.41A191,191,0,0,1,62,271.73q6.22-3,12.69-5.53,5,8.68,10.7,16.8Zm23.9-6.29q-7.63,1.5-15,3.58a191.16,191.16,0,0,1-11.16-17.14q7.59-2.57,15.46-4.5a198.93,198.93,0,0,0,10.7,18Zm26.47-3.4q-8.58.51-17,1.74A190.74,190.74,0,0,1,107.4,256.7q8.48-1.65,17.22-2.52A199.11,199.11,0,0,0,135.76,273.34Zm30.27.51q-9.13-.85-18.49-.86h-1.42a190.27,190.27,0,0,1-11.94-19.52q4.62-.23,9.3-.23,5.39,0,10.71.3A199,199,0,0,0,166,273.86ZM198,270q-3.49,4-7.35,7.71-6.44-1.39-13-2.39a190.22,190.22,0,0,1-13.17-20.88,187.66,187.66,0,0,1,26.91,5q3.11,5.38,6.56,10.57ZM49.6,268.24q-7.74,4.2-15,9a113.75,113.75,0,0,1-13.4-15.53,189.17,189.17,0,0,1,18.52-12.94A198.13,198.13,0,0,0,49.6,268.24Zm21-9.82q-6.69,2.67-13.14,5.81a189.57,189.57,0,0,1-10.17-19.89q6.85-3.77,14-7a198.6,198.6,0,0,0,9.26,21.08Zm24-7.82q-8,2-15.73,4.74A189.37,189.37,0,0,1,69.49,234q8-3.13,16.32-5.54a198,198,0,0,0,8.74,22.13Zm26.1-4.82q-8.8,1-17.36,2.8a189.07,189.07,0,0,1-9-22.34q8.74-2.08,17.78-3.34a198,198,0,0,0,8.53,22.88ZM150,244.57q-3.21-.1-6.45-.1-6.84,0-13.57.46a189.6,189.6,0,0,1-9-23.05q8.49-.77,17.19-.78h3.16a197.77,197.77,0,0,0,8.62,23.47Zm36,4.49a196.61,196.61,0,0,0-26.08-3.92,189.72,189.72,0,0,1-9.33-23.63,188.17,188.17,0,0,1,25.3,3.38,198.27,198.27,0,0,0,10,24.17Zm28-3.19a107.66,107.66,0,0,1-5.36,9.66q-5.62-2-11.39-3.61A189.26,189.26,0,0,1,186,227.26,187.11,187.11,0,0,1,209.13,235Q211.4,240.5,214,245.87ZM36.25,240.62a198,198,0,0,0-20,13.79,113,113,0,0,1-7.23-14.07,189.85,189.85,0,0,1,21.38-16.73Q33,232.26,36.25,240.62Zm22.21-11.56q-7.46,3.28-14.52,7.15-3.3-8.6-5.77-17.57,7.43-4.49,15.29-8.31A193,193,0,0,0,58.46,229.06Zm24.73-9q-8.47,2.45-16.61,5.63a188.2,188.2,0,0,1-5-19.09Q70,203,78.72,200.26A197.37,197.37,0,0,0,83.19,220.06Zm26.41-5.72q-9.11,1.32-17.94,3.46a188.75,188.75,0,0,1-4.47-20q9-2.38,18.27-3.88A197.41,197.41,0,0,0,109.6,214.34Zm29.19-2H138a191.7,191.7,0,0,0-19.69,1,188.15,188.15,0,0,1-4.24-20.55,190.06,190.06,0,0,1,20.62-1.21A197.5,197.5,0,0,0,138.79,212.34Zm34,3.06a197.46,197.46,0,0,0-24.93-2.82,187.93,187.93,0,0,1-4.26-20.85,188.69,188.69,0,0,1,24.4,2.61,197.06,197.06,0,0,0,4.82,21Zm32,8.56a195.56,195.56,0,0,0-22.3-6.57,188.77,188.77,0,0,1-5.31-21.19,186.86,186.86,0,0,1,21.44,6.22,197,197,0,0,0,6.24,21.52Zm19.38-10.24a112.86,112.86,0,0,1-3.93,16.56l-4.49-2a188.53,188.53,0,0,1-7.18-22q8.06,3.35,15.66,7.42ZM28,214.63A198.41,198.41,0,0,0,5.74,231.51,112.66,112.66,0,0,1,1.83,216.2a189.84,189.84,0,0,1,23-18.67q1.23,8.66,3.24,17.07Zm23.68-13.2q-8.11,3.81-15.8,8.33-1.89-8.65-3-17.53a188.29,188.29,0,0,1,16.66-9.17q.67,9.28,2.19,18.34Zm25.65-9.93q-8.81,2.71-17.34,6.24-1.42-9.16-2-18.56a187.06,187.06,0,0,1,17.85-6.55q.37,9.53,1.56,18.84Zm26.94-6.26q-9.36,1.49-18.41,3.84-1.11-9.33-1.3-18.9a187.16,187.16,0,0,1,18.71-3.84c.05,6.36.42,12.65,1.06,18.87Zm29.38-2.45a198.88,198.88,0,0,0-20.7,1.27,175.63,175.63,0,0,1-1-18.81,190.08,190.08,0,0,1,19.78-1h1q.12,9.32,1,18.51Zm33,2.44a197.92,197.92,0,0,0-24.14-2.33q-.9-9.11-.93-18.43a188.7,188.7,0,0,1,23.67,2.72q.31,9.08,1.42,18Zm30,7.23a195.79,195.79,0,0,0-21-5.58Q174.44,178,174.05,169a187,187,0,0,1,20.36,5.91q.79,8.85,2.3,17.53Zm28.73-3.36q.2,3.33.2,6.7,0,4.33-.32,8.58a196.12,196.12,0,0,0-19.07-8.53q-1.72-8.61-2.65-17.46a187.89,187.89,0,0,1,21.89,10.68Zm-201.8-1.34A198.59,198.59,0,0,0,.42,205.58Q0,200.73,0,195.77q0-4.26.31-8.44a189.89,189.89,0,0,1,22.33-17.66Q22.7,178.81,23.59,187.76Zm25.5-14.2q-8.82,4.09-17.16,9-.68-9.15-.48-18.49a188.13,188.13,0,0,1,18.06-9.5v.49C49,161.28,48.94,167.45,49.09,173.56Zm26.76-10.09q-9.23,2.73-18.07,6.32,0-7,.42-14.15.17-2.49.4-5A187,187,0,0,1,77,144.46c-.31,2.83-.58,5.67-.77,8.54Q75.92,158.25,75.85,163.47Zm27.56-6q-9.52,1.38-18.73,3.65c.07-2.49.17-5,.34-7.5q.39-5.78,1.12-11.43a187.35,187.35,0,0,1,18.79-3.27c-.52,4-.93,8.11-1.21,12.22-.14,2.08-.24,4.2-.31,6.29Zm29.62-2h-1.21a190.72,190.72,0,0,0-19.61,1q.1-2.33.25-4.67.46-6.92,1.42-13.69,7-.52,14.1-.52,3.32,0,6.62.11c-.57,4.28-1,8.6-1.3,13q-.17,2.29-.3,4.7Zm32.17,2.82a197.45,197.45,0,0,0-23.41-2.57c.07-1.49.14-3,.24-4.49q.44-6.6,1.33-13a188,188,0,0,1,22.76,3.11c-.19,2-.36,4-.49,5.94q-.38,5.5-.44,10.94Zm28.73,7.18a195.64,195.64,0,0,0-20-5.48c0-4,.15-8,.42-12q.15-2.28.36-4.55a187,187,0,0,1,19.29,6q-.34,8-.08,16Zm26.52-3.67a112.78,112.78,0,0,1,3.88,16.71,196.46,196.46,0,0,0-21.49-9.83q-.41-7.78-.17-15.7a188.12,188.12,0,0,1,17.78,8.74ZM22.86,159a198.29,198.29,0,0,0-20.8,15.1,112.55,112.55,0,0,1,6.52-21.73,189.49,189.49,0,0,1,15.94-11.47c-.63,4.6-1.12,9.26-1.44,14C23,156.29,22.93,157.66,22.86,159Zm27.59-14.5A196.64,196.64,0,0,0,32,153.62q.73-9.43,2.33-18.57a187.78,187.78,0,0,1,19.34-9.44q-2.05,9.3-3.22,18.92ZM78.3,135q-9.46,2.46-18.53,5.81a190.41,190.41,0,0,1,3.76-19,186.82,186.82,0,0,1,18.66-5.53q-2.37,9.17-3.88,18.71Zm28-5.14a174.69,174.69,0,0,0-18.74,3,190.6,190.6,0,0,1,4.28-18.63q9.11-1.69,18.5-2.49-2.44,8.87-4.05,18.12Zm29.66-1q-4-.16-8-.16-6.37,0-12.64.4Q117,120,119.59,111.2q3.36-.12,6.74-.12,6.79,0,13.47.48-2.29,8.48-3.85,17.29Zm31.21,3.74a196.75,196.75,0,0,0-22.41-3.2q1.59-8.67,3.93-17a187.61,187.61,0,0,1,21.5,3.82q-1.85,8-3,16.36Zm27.5,7.68a195.73,195.73,0,0,0-18.92-5.75q1.12-8.18,2.92-16.1a187.34,187.34,0,0,1,18,6.22q-1.29,7.67-2,15.61Zm10.06-10.21a113.15,113.15,0,0,1,11,19.21q-6.15-3.07-12.55-5.71.53-6.85,1.52-13.53Zm-22.86-23.85q3.87,3,7.47,6.34-4.22-1.42-8.53-2.66c.31-1.26.67-2.48,1-3.71ZM156,91.15a112.34,112.34,0,0,1,18.33,9.7c-.71,2.26-1.39,4.52-2,6.82a196.23,196.23,0,0,0-21-3.83Q153.42,97.34,156,91.15Zm-26.11-7.3a111.75,111.75,0,0,1,17.89,4.25q-3,7.26-5.41,14.82-7.93-.64-16-.64h-3.93a188.78,188.78,0,0,1,7.45-18.44ZM26.43,129.46q-4.46,2.63-8.76,5.48a113.57,113.57,0,0,1,10.69-14.21Q27.31,125,26.43,129.46Zm29.8-14.33a196.28,196.28,0,0,0-19.61,8.73Q38.48,116,41,108.5A112.89,112.89,0,0,1,63.39,94a197.36,197.36,0,0,0-7.15,21.14ZM85,106.63a187.16,187.16,0,0,0-18.52,4.92A188.55,188.55,0,0,1,75.11,89,111.61,111.61,0,0,1,93.55,84.2,197.21,197.21,0,0,0,85,106.63Zm27.87-24.08q4,0,7.9.27a197.55,197.55,0,0,0-7.77,19.9q-9.25.62-18.26,2.08a188.55,188.55,0,0,1,9-21.88q4.53-.36,9.08-.37Z"/></clipPath></defs><title>fav - white</title><path class="cls-1" d="M158.82,77.7q-1.26-.46-2.49-1l1.14-.52q.66.77,1.34,1.52M170.29,80a39.77,39.77,0,0,1-5.49-.66q-2.25-2.11-4.31-4.42,2-.78,4.06-1.43A70.45,70.45,0,0,0,170.3,80Zm9.54-.66a39.76,39.76,0,0,1-5.08.64,67.29,67.29,0,0,1-7-7.4q2.58-.67,5.24-1.14a70.39,70.39,0,0,0,6.85,7.9Zm8-2.44a39.43,39.43,0,0,1-4.43,1.58,67.3,67.3,0,0,1-6.88-7.56q3-.36,6-.45a70.55,70.55,0,0,0,5.32,6.43Zm7.17-4a39.88,39.88,0,0,1-4.23,2.57q-2.32-2.41-4.39-5a66.87,66.87,0,0,1,7.13.57c.49.63,1,1.3,1.49,1.89Zm-39.58.77q-1.31.6-2.59,1.26a40,40,0,0,1-5.81-4q2.22-1.43,4.55-2.69,1.81,2.85,3.86,5.46Zm7.18-2.84q-2.15.71-4.23,1.56a67.58,67.58,0,0,1-4-5.54q2.2-1.06,4.49-2a61.86,61.86,0,0,0,3.75,6ZM171,68.61q-2.7.53-5.32,1.27a67.55,67.55,0,0,1-3.95-6.06q2.68-.91,5.47-1.59a70.36,70.36,0,0,0,3.81,6.41Zm9.36-1.19q-3,.18-6,.61a67.4,67.4,0,0,1-4-6.5q3-.58,6.09-.89a70.31,70.31,0,0,0,3.91,6.81Zm10.7.18q-3.23-.3-6.54-.3h-.5a67.32,67.32,0,0,1-4.22-6.9q1.63-.08,3.29-.08,1.91,0,3.79.11a70.42,70.42,0,0,0,4.18,7.2Zm11.3-1.36q-1.23,1.42-2.6,2.73-2.26-.5-4.57-.86a67.32,67.32,0,0,1-4.65-7.38,66.32,66.32,0,0,1,9.51,1.77q1.1,1.94,2.31,3.77ZM150,65.64q-2.74,1.48-5.32,3.2a40.18,40.18,0,0,1-4.78-5.5,66.81,66.81,0,0,1,6.55-4.58A70,70,0,0,0,150,65.64Zm7.41-3.47q-2.37.94-4.65,2.05a67,67,0,0,1-3.58-7q2.42-1.33,5-2.47a70.19,70.19,0,0,0,3.18,7.42Zm8.48-2.76q-2.83.72-5.56,1.67A66.93,66.93,0,0,1,157,53.54q2.82-1.11,5.77-2a69.91,69.91,0,0,0,3.08,7.87Zm9.23-1.7q-3.11.36-6.14,1a66.89,66.89,0,0,1-3.2-7.9q3.09-.74,6.29-1.18a70,70,0,0,0,3,8.07Zm10.35-.43h-2.28q-2.42,0-4.8.16a67.1,67.1,0,0,1-3.19-8.15q3-.27,6.08-.27h1.12a69.92,69.92,0,0,0,3,8.26Zm12.72,1.59A69.52,69.52,0,0,0,189,57.48a67.06,67.06,0,0,1-3.3-8.35,66.49,66.49,0,0,1,8.95,1.2,70.06,70.06,0,0,0,3.52,8.53Zm9.94-1.13q-.87,1.76-1.89,3.41-2-.7-4-1.27a66.94,66.94,0,0,1-4-8.72,66.24,66.24,0,0,1,8.18,2.73q.73,1.95,1.66,3.84Zm-62.85-1.85a70,70,0,0,0-7.05,4.87,39.93,39.93,0,0,1-2.56-5,67.14,67.14,0,0,1,7.56-5.91,59.68,59.68,0,0,0,2,6Zm7.85-4.09A53.19,53.19,0,0,0,148,54.34a54.89,54.89,0,0,1-2-6.21q2.63-1.59,5.4-2.94a46.53,46.53,0,0,0,1.69,6.6Zm8.74-3.18q-3,.87-5.87,2a66.55,66.55,0,0,1-1.75-6.75q3-1.26,6-2.24a69.77,69.77,0,0,0,1.58,7Zm9.34-2q-3.22.47-6.34,1.22a66.73,66.73,0,0,1-1.58-7.07q3.17-.84,6.46-1.37a69.72,69.72,0,0,0,1.42,7.2Zm10.32-.72h-.26q-3.52,0-7,.34a66.46,66.46,0,0,1-1.5-7.26,67.27,67.27,0,0,1,7.29-.43,69.85,69.85,0,0,0,1.43,7.32Zm12,1.08a69.81,69.81,0,0,0-8.81-1,66.47,66.47,0,0,1-1.51-7.37,66.74,66.74,0,0,1,8.63.93,69.63,69.63,0,0,0,1.67,7.41Zm11.33,3A69.09,69.09,0,0,0,197,47.66a66.8,66.8,0,0,1-1.88-7.49,66.13,66.13,0,0,1,7.58,2.2A69.68,69.68,0,0,0,204.84,50Zm6.83-3.64a39.9,39.9,0,0,1-1.39,5.86l-1.59-.71a66.7,66.7,0,0,1-2.54-7.78Q209,44.92,211.69,46.34Zm-69.35.32a70.12,70.12,0,0,0-7.89,6,39.84,39.84,0,0,1-1.38-5.41,67.08,67.08,0,0,1,8.11-6.6q.45,3.06,1.17,6ZM150.71,42q-2.87,1.35-5.59,2.94-.68-3-1.08-6.19a66.67,66.67,0,0,1,5.89-3.24q.25,3.31.79,6.51Zm9.07-3.51q-3.14,1-6.14,2.22-.5-3.24-.69-6.56a66,66,0,0,1,6.31-2.32q.11,3.39.52,6.68Zm9.52-2.21q-3.31.53-6.51,1.36-.39-3.3-.46-6.68a66.2,66.2,0,0,1,6.59-1.35c0,2.27.16,4.49.39,6.69Zm10.39-.87a70.31,70.31,0,0,0-7.32.45A66.58,66.58,0,0,1,172,29.2a67.23,67.23,0,0,1,7-.36h.37q0,3.33.31,6.58Zm11.65.86a70,70,0,0,0-8.54-.82q-.32-3.22-.33-6.52a66.7,66.7,0,0,1,8.37,1q.16,3.21.51,6.36ZM202,38.84a69.21,69.21,0,0,0-7.42-2q-.43-3.12-.57-6.33a66.1,66.1,0,0,1,7.2,2.09A54.64,54.64,0,0,0,202,38.84Zm10.16-1.19c0,.78.07,1.57.07,2.37q0,1.53-.11,3a69.4,69.4,0,0,0-6.74-3q-.61-3-.94-6.17a66.41,66.41,0,0,1,7.68,3.81Zm-71.36-.46a70.2,70.2,0,0,0-8.19,6.3q-.15-1.72-.15-3.47,0-1.51.11-3a67.09,67.09,0,0,1,7.9-6.24,61.72,61.72,0,0,0,.29,6.41Zm9-5a68.17,68.17,0,0,0-6.07,3.18q-.24-3.23-.17-6.54a66.45,66.45,0,0,1,6.38-3.36v.17a59.5,59.5,0,0,0-.16,6.53Zm9.46-3.57q-3.26,1-6.39,2.23,0-2.48.15-5,.06-.88.14-1.75a66.09,66.09,0,0,1,6.52-2.2q-.17,1.5-.27,3-.15,1.86-.18,3.7ZM169,26.47q-3.37.49-6.62,1.29c0-.88.06-1.76.12-2.65q.14-2,.4-4a66.22,66.22,0,0,1,6.64-1.16c-.18,1.43-.33,2.87-.43,4.32A14.54,14.54,0,0,0,169,26.47Zm10.47-.72H179q-3.51,0-6.93.34a15.3,15.3,0,0,1,.09-1.65q.16-2.45.5-4.84,2.47-.18,5-.18H180c-.2,1.51-.36,3-.46,4.58q-.06.9-.09,1.75Zm11.37,1a69.71,69.71,0,0,0-8.28-.91c0-.53.05-1.06.09-1.59q.16-2.33.47-4.61a66.45,66.45,0,0,1,8,1.15c-.07.7-.13,1.4-.17,2.1-.07,1.29-.11,2.58-.13,3.86ZM201,29.29a69.14,69.14,0,0,0-7.09-2c0-1.41.05-2.83.15-4.25q.05-.81.13-1.61A66.09,66.09,0,0,1,201,23.63Q200.88,26.48,201,29.29Zm9.38-1.3a39.86,39.86,0,0,1,1.37,5.91,69.49,69.49,0,0,0-7.6-3.48q-.14-2.75-.06-5.55A66.54,66.54,0,0,1,210.35,28Zm-69.85-1a70.11,70.11,0,0,0-7.38,5.35,39.8,39.8,0,0,1,2.3-7.68,67.14,67.14,0,0,1,5.63-4c-.22,1.63-.4,3.27-.51,4.94,0,.52,0,1-.07,1.49Zm9.75-5.13a69.58,69.58,0,0,0-6.53,3.21q.26-3.33.82-6.56a66.38,66.38,0,0,1,6.84-3.34q-.74,3.34-1.15,6.74Zm9.85-3.37q-3.34.87-6.55,2a67.26,67.26,0,0,1,1.33-6.73,66,66,0,0,1,6.6-2q-.87,3.36-1.41,6.73ZM170,16.73q-3.36.37-6.62,1a67.49,67.49,0,0,1,1.51-6.59,65.92,65.92,0,0,1,6.54-.88Q170.57,13.46,170,16.73Zm10.48-.39q-1.4-.06-2.82-.06-2.25,0-4.47.14.61-3.23,1.51-6.33h2.38q2.4,0,4.76.17A58.13,58.13,0,0,0,180.48,16.34Zm11,1.32a69.56,69.56,0,0,0-7.92-1.13q.56-3.06,1.39-6a66.33,66.33,0,0,1,7.6,1.35q-.62,2.87-1,5.81Zm9.72,2.71a69.16,69.16,0,0,0-6.69-2q.4-2.89,1-5.69a66.08,66.08,0,0,1,6.38,2.2q-.4,2.73-.66,5.53Zm3.55-3.61a40,40,0,0,1,3.89,6.79q-2.18-1.08-4.44-2,.24-2.4.59-4.76Zm-8-8.42q1.37,1.06,2.64,2.24-1.49-.5-3-.94C196.45,9.23,196.58,8.8,196.71,8.34ZM187.57,3A39.71,39.71,0,0,1,194,6.47c-.25.8-.49,1.6-.71,2.41a69.41,69.41,0,0,0-7.43-1.35q.8-2.29,1.71-4.49ZM178.34.43a39.42,39.42,0,0,1,6.32,1.5q-1.06,2.57-1.91,5.24-2.8-.23-5.67-.23H175.7A66.66,66.66,0,0,1,178.34.45ZM141.77,16.58q-1.58.93-3.1,1.94a40.16,40.16,0,0,1,3.78-5Q142.07,15,141.77,16.58Zm10.54-5.07a69.37,69.37,0,0,0-6.93,3.08q.66-2.76,1.54-5.43A39.9,39.9,0,0,1,154.85,4a69.77,69.77,0,0,0-2.55,7.48Zm10.15-3a67.06,67.06,0,0,0-6.55,1.74A66.7,66.7,0,0,1,159,2.34,39.45,39.45,0,0,1,165.52.63a69.57,69.57,0,0,0-3.07,7.88ZM172.31,0q1.41,0,2.79.1a69.82,69.82,0,0,0-2.72,7q-3.27.22-6.46.73A66.7,66.7,0,0,1,169.11.09Q170.7,0,172.3,0Zm83.75,155.46q-2-.72-3.92-1.57l1.8-.82,2.11,2.39Zm18.09,3.62a62.7,62.7,0,0,1-8.65-1q-3.55-3.32-6.79-7,3.15-1.22,6.4-2.25a111,111,0,0,0,9,10.25Zm15-1a62.71,62.71,0,0,1-8,1,106.08,106.08,0,0,1-11-11.66q4.07-1.06,8.25-1.79A111,111,0,0,0,289.17,158Zm12.6-3.84a62.2,62.2,0,0,1-7,2.49,106.06,106.06,0,0,1-10.85-11.91q4.65-.56,9.43-.71a111.21,111.21,0,0,0,8.45,10.09ZM313,148a62.7,62.7,0,0,1-6.66,4q-3.65-3.8-6.92-7.95a105.56,105.56,0,0,1,11.24.91c.79,1,1.57,2,2.37,3Zm-62.38,1.21-4.09,2a63,63,0,0,1-9.15-6.27q3.49-2.26,7.17-4.24,2.87,4.35,6.1,8.47ZM262,144.69q-3.38,1.12-6.66,2.46a106.43,106.43,0,0,1-6.34-8.74q3.47-1.66,7.07-3.08Q258.81,140.16,262,144.69Zm13.32-3.51q-4.25.84-8.38,2a106.49,106.49,0,0,1-6.22-9.55q4.23-1.43,8.62-2.51a110.89,110.89,0,0,0,6,10.06Zm14.76-1.84q-4.78.28-9.45,1a106.29,106.29,0,0,1-6.33-10.24q4.73-.92,9.6-1.4A111,111,0,0,0,290.08,139.34Zm16.86.29q-5.09-.48-10.3-.48h-.79a106,106,0,0,1-6.65-10.88q2.57-.13,5.18-.13,3,0,6,.17a110.91,110.91,0,0,0,6.56,11.28Zm17.81-2.14q-2,2.24-4.09,4.3-3.56-.8-7.21-1.36a106.08,106.08,0,0,1-7.34-11.63,104.44,104.44,0,0,1,15,2.79q1.72,3,3.64,5.87Zm-82.68-1q-4.31,2.34-8.38,5a63.41,63.41,0,0,1-7.47-8.65,105.45,105.45,0,0,1,10.32-7.21,110.49,110.49,0,0,0,5.53,10.83ZM253.74,131q-3.73,1.49-7.32,3.24a105.65,105.65,0,0,1-5.64-11.05q3.82-2.1,7.82-3.89A110.57,110.57,0,0,0,253.75,131Zm13.37-4.36q-4.46,1.14-8.77,2.64a105.56,105.56,0,0,1-5.22-12q4.45-1.74,9.1-3.09a110.18,110.18,0,0,0,4.89,12.38ZM281.65,124q-4.91.57-9.67,1.56a105.3,105.3,0,0,1-5-12.45q4.87-1.16,9.91-1.86a110.3,110.3,0,0,0,4.77,12.72Zm16.31-.67q-1.79-.06-3.59-.06-3.81,0-7.56.26a105.56,105.56,0,0,1-5-12.84q4.73-.43,9.58-.43h1.76a110.26,110.26,0,0,0,4.85,13Zm20,2.5a109.49,109.49,0,0,0-14.53-2.18,105.67,105.67,0,0,1-5.2-13.17,104.82,104.82,0,0,1,14.1,1.89A110.49,110.49,0,0,0,318,125.77ZM333.63,124a58.87,58.87,0,0,1-3,5.38q-3.13-1.1-6.34-2A105.4,105.4,0,0,1,318,113.63a104.33,104.33,0,0,1,12.89,4.3q1.33,3.08,2.79,6.07Zm-99-2.92a110.29,110.29,0,0,0-11.11,7.68,62.92,62.92,0,0,1-4-7.86,105.81,105.81,0,0,1,11.91-9.32q1.37,4.8,3.2,9.46ZM247,114.63q-4.14,1.83-8.09,4-1.84-4.79-3.22-9.79,4.14-2.5,8.52-4.63Q245.36,109.51,247,114.63Zm13.78-5q-4.72,1.37-9.26,3.13a104.85,104.85,0,0,1-2.76-10.64,99.73,99.73,0,0,1,9.52-3.53,109.9,109.9,0,0,0,2.51,11Zm14.72-3.18q-5.08.73-10,1.93A105.17,105.17,0,0,1,263,97.22q5-1.32,10.18-2.16a109.88,109.88,0,0,0,2.32,11.38Zm16.27-1.11h-.41q-5.55,0-11,.54A104.89,104.89,0,0,1,278,94.4a105.86,105.86,0,0,1,11.49-.67A110,110,0,0,0,291.77,105.34Zm19,1.7a110.06,110.06,0,0,0-13.89-1.57,104.65,104.65,0,0,1-2.38-11.62,105.07,105.07,0,0,1,13.59,1.46,109.77,109.77,0,0,0,2.63,11.7Zm17.85,4.77a109.09,109.09,0,0,0-12.42-3.66,105.12,105.12,0,0,1-3-11.81,104.12,104.12,0,0,1,12,3.47,109.78,109.78,0,0,0,3.43,12Zm10.8-5.71a62.85,62.85,0,0,1-2.19,9.23q-1.24-.57-2.5-1.11a104.9,104.9,0,0,1-4-12.26q4.41,1.84,8.64,4.11Zm-109.3.5A110.58,110.58,0,0,0,217.68,116a62.84,62.84,0,0,1-2.18-8.53,105.75,105.75,0,0,1,12.79-10.4q.71,4.8,1.79,9.49Zm13.19-7.36q-4.52,2.13-8.8,4.64-1.07-4.8-1.7-9.75A104.91,104.91,0,0,1,242.09,89a99.9,99.9,0,0,0,1.18,10.2Zm14.29-5.53q-4.94,1.52-9.68,3.49-.79-5.1-1.09-10.34a104.22,104.22,0,0,1,9.94-3.65,103.1,103.1,0,0,0,.79,10.48Zm15-3.49q-5.21.83-10.26,2.14-.62-5.2-.73-10.53A104.36,104.36,0,0,1,272,79.68a101.76,101.76,0,0,0,.57,10.52ZM289,88.86a110.79,110.79,0,0,0-11.53.71q-.53-5.18-.55-10.48a105.89,105.89,0,0,1,11-.57h.58q0,5.19.48,10.31Zm18.36,1.36a110.29,110.29,0,0,0-13.45-1.3q-.5-5.08-.52-10.27a105.12,105.12,0,0,1,13.19,1.51q.14,5.06.76,10Zm16.73,4a109,109,0,0,0-11.69-3.11q-.68-4.92-.9-10a104.27,104.27,0,0,1,11.34,3.29q.39,4.94,1.19,9.82ZM340,92.34c.07,1.23.11,2.48.11,3.73q0,2.41-.18,4.78A109.37,109.37,0,0,0,329.3,96.1a90.83,90.83,0,0,1-1.48-9.73A104.69,104.69,0,0,1,340,92.34Zm-112.47-.73a110.65,110.65,0,0,0-12.91,9.93q-.23-2.7-.23-5.47,0-2.37.17-4.7A105.79,105.79,0,0,1,227,81.53q.09,5.1.58,10.09Zm14.21-7.91q-4.92,2.28-9.56,5-.38-5.1-.27-10.3A104.83,104.83,0,0,1,242,73.12v.27c-.23,3.47-.3,7-.21,10.32Zm14.91-5.62q-5.14,1.52-10.07,3.52,0-3.91.24-7.88.09-1.39.22-2.77a104.16,104.16,0,0,1,10.27-3.47c-.17,1.58-.32,3.16-.43,4.76q-.14,2.94-.18,5.84ZM272,74.72q-5.31.77-10.44,2c0-1.39.1-2.78.19-4.18.14-2.14.36-4.27.63-6.37a104.5,104.5,0,0,1,10.52-1.83c-.29,2.25-.52,4.52-.67,6.81-.08,1.19-.14,2.4-.18,3.57Zm16.5-1.13h-.67q-5.53,0-10.93.54.06-1.3.14-2.6.26-3.86.79-7.63,3.89-.29,7.86-.29,1.85,0,3.69.06-.48,3.57-.73,7.22,0,1.35-.1,2.7Zm17.92,1.57a109.93,109.93,0,0,0-13-1.43c0-.83.08-1.67.14-2.5q.25-3.68.74-7.27a104.67,104.67,0,0,1,12.7,1.8c-.11,1.1-.2,2.2-.28,3.31q-.21,3.06-.24,6.09Zm16,4a109,109,0,0,0-11.13-3.05c0-2.22.08-4.46.23-6.7q.08-1.27.2-2.53a104.2,104.2,0,0,1,10.76,3.38q-.14,4.48,0,8.9Zm14.78-2a62.86,62.86,0,0,1,2.16,9.31,109.44,109.44,0,0,0-12-5.48q-.23-4.34-.1-8.75a104.77,104.77,0,0,1,10,4.87Zm-110.09-1.5a110.52,110.52,0,0,0-11.59,8.41A62.71,62.71,0,0,1,219.15,72,105.72,105.72,0,0,1,228,65.57q-.53,3.85-.8,7.78c0,.73,0,1.5-.06,2.26Zm15.37-8.08a109.54,109.54,0,0,0-10.3,5.06q.4-5.26,1.3-10.35A104.59,104.59,0,0,1,244.26,57q-1.07,5.14-1.71,10.5ZM258,62.27a107.81,107.81,0,0,0-10.32,3.24,106.08,106.08,0,0,1,2.1-10.6,104.21,104.21,0,0,1,10.4-3.08q-1.27,5.08-2.11,10.4Zm15.66-2.93q-5.3.58-10.44,1.66a106.27,106.27,0,0,1,2.38-10.38q5.07-.94,10.31-1.39Q274.56,54.22,273.66,59.34Zm16.53-.57q-2.21-.09-4.44-.09-3.55,0-7,.22,1-5.09,2.38-10,1.87-.07,3.76-.07,3.79,0,7.51.27-1.35,4.79-2.22,9.7Zm17.39,2.09a109.54,109.54,0,0,0-12.48-1.78q.88-4.83,2.19-9.49a104.53,104.53,0,0,1,12,2.13q-1.06,4.52-1.72,9.16Zm15.32,4.28a109,109,0,0,0-10.54-3.2q.63-4.56,1.62-9a104.31,104.31,0,0,1,10,3.52q-.71,4.29-1.11,8.7Zm5.6-5.69a63,63,0,0,1,6.14,10.71q-3.43-1.71-7-3.18.3-3.79.85-7.51ZM315.75,46.18q2.16,1.68,4.16,3.53-2.35-.79-4.75-1.48C315.35,47.55,315.55,46.86,315.75,46.18Zm-14.4-8.4a62.63,62.63,0,0,1,10.21,5.41c-.39,1.26-.78,2.52-1.13,3.8a109.26,109.26,0,0,0-11.71-2.13q1.2-3.6,2.64-7.07ZM286.8,33.71a62.25,62.25,0,0,1,10,2.37q-1.67,4-3,8.26-4.42-.36-8.93-.36h-2.19a105.23,105.23,0,0,1,4.13-10.26ZM229.16,59.13q-2.48,1.46-4.88,3.05a63.33,63.33,0,0,1,6-7.92Q229.65,56.68,229.16,59.13Zm16.61-8A109.38,109.38,0,0,0,234.84,56q1-4.35,2.42-8.56a62.89,62.89,0,0,1,12.5-8.09,109.87,109.87,0,0,0-4,11.81Zm16-4.73q-5.26,1.13-10.32,2.74a105.07,105.07,0,0,1,4.81-12.54,62.22,62.22,0,0,1,10.28-2.7,109.88,109.88,0,0,0-4.77,12.52ZM277.3,33q2.22,0,4.4.15a110.13,110.13,0,0,0-4.28,11.08q-5.16.34-10.18,1.16a105,105,0,0,1,5-12.19Q274.76,33,277.3,33ZM74.69,302.34q-3.57-1.29-7-2.81,1.61-.76,3.24-1.48Q72.76,300.22,74.69,302.34Zm32.46,6.5A112.52,112.52,0,0,1,91.62,307q-6.38-6-12.18-12.49,5.66-2.2,11.49-4A199.32,199.32,0,0,0,107.15,308.84Zm27-1.88a112.51,112.51,0,0,1-14.36,1.81A190.35,190.35,0,0,1,100,287.84q7.3-1.9,14.82-3.22A199.19,199.19,0,0,0,134.14,307Zm22.62-6.89a111.77,111.77,0,0,1-12.53,4.46,190.38,190.38,0,0,1-19.47-21.38q8.35-1,16.92-1.28a199.7,199.7,0,0,0,15.07,18.2ZM177,288.86a112.67,112.67,0,0,1-12,7.26q-6.56-6.82-12.42-14.26a189.28,189.28,0,0,1,20.16,1.63C174.2,285.34,175.61,287.09,177,288.86ZM65.09,291q-3.71,1.71-7.34,3.57a113,113,0,0,1-16.42-11.26q6.27-4,12.86-7.61Q59.28,283.64,65.09,291Zm20.3-8q-6.07,2-12,4.41A191,191,0,0,1,62,271.73q6.22-3,12.69-5.53,5,8.68,10.7,16.8Zm23.9-6.29q-7.63,1.5-15,3.58a191.16,191.16,0,0,1-11.16-17.14q7.59-2.57,15.46-4.5a198.93,198.93,0,0,0,10.7,18Zm26.47-3.4q-8.58.51-17,1.74A190.74,190.74,0,0,1,107.4,256.7q8.48-1.65,17.22-2.52A199.11,199.11,0,0,0,135.76,273.34Zm30.27.51q-9.13-.85-18.49-.86h-1.42a190.27,190.27,0,0,1-11.94-19.52q4.62-.23,9.3-.23,5.39,0,10.71.3A199,199,0,0,0,166,273.86ZM198,270q-3.49,4-7.35,7.71-6.44-1.39-13-2.39a190.22,190.22,0,0,1-13.17-20.88,187.66,187.66,0,0,1,26.91,5q3.11,5.38,6.56,10.57ZM49.6,268.24q-7.74,4.2-15,9a113.75,113.75,0,0,1-13.4-15.53,189.17,189.17,0,0,1,18.52-12.94A198.13,198.13,0,0,0,49.6,268.24Zm21-9.82q-6.69,2.67-13.14,5.81a189.57,189.57,0,0,1-10.17-19.89q6.85-3.77,14-7a198.6,198.6,0,0,0,9.26,21.08Zm24-7.82q-8,2-15.73,4.74A189.37,189.37,0,0,1,69.49,234q8-3.13,16.32-5.54a198,198,0,0,0,8.74,22.13Zm26.1-4.82q-8.8,1-17.36,2.8a189.07,189.07,0,0,1-9-22.34q8.74-2.08,17.78-3.34a198,198,0,0,0,8.53,22.88ZM150,244.57q-3.21-.1-6.45-.1-6.84,0-13.57.46a189.6,189.6,0,0,1-9-23.05q8.49-.77,17.19-.78h3.16a197.77,197.77,0,0,0,8.62,23.47Zm36,4.49a196.61,196.61,0,0,0-26.08-3.92,189.72,189.72,0,0,1-9.33-23.63,188.17,188.17,0,0,1,25.3,3.38,198.27,198.27,0,0,0,10,24.17Zm28-3.19a107.66,107.66,0,0,1-5.36,9.66q-5.62-2-11.39-3.61A189.26,189.26,0,0,1,186,227.26,187.11,187.11,0,0,1,209.13,235Q211.4,240.5,214,245.87ZM36.25,240.62a198,198,0,0,0-20,13.79,113,113,0,0,1-7.23-14.07,189.85,189.85,0,0,1,21.38-16.73Q33,232.26,36.25,240.62Zm22.21-11.56q-7.46,3.28-14.52,7.15-3.3-8.6-5.77-17.57,7.43-4.49,15.29-8.31A193,193,0,0,0,58.46,229.06Zm24.73-9q-8.47,2.45-16.61,5.63a188.2,188.2,0,0,1-5-19.09Q70,203,78.72,200.26A197.37,197.37,0,0,0,83.19,220.06Zm26.41-5.72q-9.11,1.32-17.94,3.46a188.75,188.75,0,0,1-4.47-20q9-2.38,18.27-3.88A197.41,197.41,0,0,0,109.6,214.34Zm29.19-2H138a191.7,191.7,0,0,0-19.69,1,188.15,188.15,0,0,1-4.24-20.55,190.06,190.06,0,0,1,20.62-1.21A197.5,197.5,0,0,0,138.79,212.34Zm34,3.06a197.46,197.46,0,0,0-24.93-2.82,187.93,187.93,0,0,1-4.26-20.85,188.69,188.69,0,0,1,24.4,2.61,197.06,197.06,0,0,0,4.82,21Zm32,8.56a195.56,195.56,0,0,0-22.3-6.57,188.77,188.77,0,0,1-5.31-21.19,186.86,186.86,0,0,1,21.44,6.22,197,197,0,0,0,6.24,21.52Zm19.38-10.24a112.86,112.86,0,0,1-3.93,16.56l-4.49-2a188.53,188.53,0,0,1-7.18-22q8.06,3.35,15.66,7.42ZM28,214.63A198.41,198.41,0,0,0,5.74,231.51,112.66,112.66,0,0,1,1.83,216.2a189.84,189.84,0,0,1,23-18.67q1.23,8.66,3.24,17.07Zm23.68-13.2q-8.11,3.81-15.8,8.33-1.89-8.65-3-17.53a188.29,188.29,0,0,1,16.66-9.17q.67,9.28,2.19,18.34Zm25.65-9.93q-8.81,2.71-17.34,6.24-1.42-9.16-2-18.56a187.06,187.06,0,0,1,17.85-6.55q.37,9.53,1.56,18.84Zm26.94-6.26q-9.36,1.49-18.41,3.84-1.11-9.33-1.3-18.9a187.16,187.16,0,0,1,18.71-3.84c.05,6.36.42,12.65,1.06,18.87Zm29.38-2.45a198.88,198.88,0,0,0-20.7,1.27,175.63,175.63,0,0,1-1-18.81,190.08,190.08,0,0,1,19.78-1h1q.12,9.32,1,18.51Zm33,2.44a197.92,197.92,0,0,0-24.14-2.33q-.9-9.11-.93-18.43a188.7,188.7,0,0,1,23.67,2.72q.31,9.08,1.42,18Zm30,7.23a195.79,195.79,0,0,0-21-5.58Q174.44,178,174.05,169a187,187,0,0,1,20.36,5.91q.79,8.85,2.3,17.53Zm28.73-3.36q.2,3.33.2,6.7,0,4.33-.32,8.58a196.12,196.12,0,0,0-19.07-8.53q-1.72-8.61-2.65-17.46a187.89,187.89,0,0,1,21.89,10.68Zm-201.8-1.34A198.59,198.59,0,0,0,.42,205.58Q0,200.73,0,195.77q0-4.26.31-8.44a189.89,189.89,0,0,1,22.33-17.66Q22.7,178.81,23.59,187.76Zm25.5-14.2q-8.82,4.09-17.16,9-.68-9.15-.48-18.49a188.13,188.13,0,0,1,18.06-9.5v.49C49,161.28,48.94,167.45,49.09,173.56Zm26.76-10.09q-9.23,2.73-18.07,6.32,0-7,.42-14.15.17-2.49.4-5A187,187,0,0,1,77,144.46c-.31,2.83-.58,5.67-.77,8.54Q75.92,158.25,75.85,163.47Zm27.56-6q-9.52,1.38-18.73,3.65c.07-2.49.17-5,.34-7.5q.39-5.78,1.12-11.43a187.35,187.35,0,0,1,18.79-3.27c-.52,4-.93,8.11-1.21,12.22-.14,2.08-.24,4.2-.31,6.29Zm29.62-2h-1.21a190.72,190.72,0,0,0-19.61,1q.1-2.33.25-4.67.46-6.92,1.42-13.69,7-.52,14.1-.52,3.32,0,6.62.11c-.57,4.28-1,8.6-1.3,13q-.17,2.29-.3,4.7Zm32.17,2.82a197.45,197.45,0,0,0-23.41-2.57c.07-1.49.14-3,.24-4.49q.44-6.6,1.33-13a188,188,0,0,1,22.76,3.11c-.19,2-.36,4-.49,5.94q-.38,5.5-.44,10.94Zm28.73,7.18a195.64,195.64,0,0,0-20-5.48c0-4,.15-8,.42-12q.15-2.28.36-4.55a187,187,0,0,1,19.29,6q-.34,8-.08,16Zm26.52-3.67a112.78,112.78,0,0,1,3.88,16.71,196.46,196.46,0,0,0-21.49-9.83q-.41-7.78-.17-15.7a188.12,188.12,0,0,1,17.78,8.74ZM22.86,159a198.29,198.29,0,0,0-20.8,15.1,112.55,112.55,0,0,1,6.52-21.73,189.49,189.49,0,0,1,15.94-11.47c-.63,4.6-1.12,9.26-1.44,14C23,156.29,22.93,157.66,22.86,159Zm27.59-14.5A196.64,196.64,0,0,0,32,153.62q.73-9.43,2.33-18.57a187.78,187.78,0,0,1,19.34-9.44q-2.05,9.3-3.22,18.92ZM78.3,135q-9.46,2.46-18.53,5.81a190.41,190.41,0,0,1,3.76-19,186.82,186.82,0,0,1,18.66-5.53q-2.37,9.17-3.88,18.71Zm28-5.14a174.69,174.69,0,0,0-18.74,3,190.6,190.6,0,0,1,4.28-18.63q9.11-1.69,18.5-2.49-2.44,8.87-4.05,18.12Zm29.66-1q-4-.16-8-.16-6.37,0-12.64.4Q117,120,119.59,111.2q3.36-.12,6.74-.12,6.79,0,13.47.48-2.29,8.48-3.85,17.29Zm31.21,3.74a196.75,196.75,0,0,0-22.41-3.2q1.59-8.67,3.93-17a187.61,187.61,0,0,1,21.5,3.82q-1.85,8-3,16.36Zm27.5,7.68a195.73,195.73,0,0,0-18.92-5.75q1.12-8.18,2.92-16.1a187.34,187.34,0,0,1,18,6.22q-1.29,7.67-2,15.61Zm10.06-10.21a113.15,113.15,0,0,1,11,19.21q-6.15-3.07-12.55-5.71.53-6.85,1.52-13.53Zm-22.86-23.85q3.87,3,7.47,6.34-4.22-1.42-8.53-2.66c.31-1.26.67-2.48,1-3.71ZM156,91.15a112.34,112.34,0,0,1,18.33,9.7c-.71,2.26-1.39,4.52-2,6.82a196.23,196.23,0,0,0-21-3.83Q153.42,97.34,156,91.15Zm-26.11-7.3a111.75,111.75,0,0,1,17.89,4.25q-3,7.26-5.41,14.82-7.93-.64-16-.64h-3.93a188.78,188.78,0,0,1,7.45-18.44ZM26.43,129.46q-4.46,2.63-8.76,5.48a113.57,113.57,0,0,1,10.69-14.21Q27.31,125,26.43,129.46Zm29.8-14.33a196.28,196.28,0,0,0-19.61,8.73Q38.48,116,41,108.5A112.89,112.89,0,0,1,63.39,94a197.36,197.36,0,0,0-7.15,21.14ZM85,106.63a187.16,187.16,0,0,0-18.52,4.92A188.55,188.55,0,0,1,75.11,89,111.61,111.61,0,0,1,93.55,84.2,197.21,197.21,0,0,0,85,106.63Zm27.87-24.08q4,0,7.9.27a197.55,197.55,0,0,0-7.77,19.9q-9.25.62-18.26,2.08a188.55,188.55,0,0,1,9-21.88q4.53-.36,9.08-.37Z" transform="translate(0 0)"/><g class="cls-2"><rect class="cls-1" width="340.16" height="308.84"/></g></svg>