<svg id="Слой_1" data-name="Слой 1" xmlns="http://www.w3.org/2000/svg" xmlns:xlink="http://www.w3.org/1999/xlink" viewBox="0 0 340.16 308.84"><defs><style>.cls-1{fill:none;clip-rule:evenodd;}.cls-2{clip-path:url(#clip-path);}.cls-3{fill:url(#Безымянный_градиент);}</style><clipPath id="clip-path" transform="translate(0 -15.66)"><path class="cls-1" d="M158.82,93.36q-1.26-.46-2.49-1l1.14-.52q.66.77,1.34,1.52m11.48,2.3a39.77,39.77,0,0,1-5.49-.66q-2.25-2.11-4.31-4.42,2-.78,4.06-1.43A70.45,70.45,0,0,0,170.3,95.66Zm9.54-.66a39.76,39.76,0,0,1-5.08.64,67.29,67.29,0,0,1-7-7.4q2.58-.67,5.24-1.14A70.39,70.39,0,0,0,179.84,95Zm8-2.44a39.43,39.43,0,0,1-4.43,1.58,67.3,67.3,0,0,1-6.88-7.56q3-.36,6-.45A70.55,70.55,0,0,0,187.84,92.56Zm7.17-4a39.88,39.88,0,0,1-4.23,2.57q-2.32-2.41-4.39-5a66.87,66.87,0,0,1,7.13.57C194,87.33,194.5,88,195,88.59Zm-39.58.77q-1.31.6-2.59,1.26a40,40,0,0,1-5.81-4q2.22-1.43,4.55-2.69Q153.38,86.75,155.43,89.36Zm7.18-2.84q-2.15.71-4.23,1.56a67.58,67.58,0,0,1-4-5.54q2.2-1.06,4.49-2Q160.58,83.65,162.61,86.52Zm8.45-2.22q-2.7.53-5.32,1.27a67.55,67.55,0,0,1-3.95-6.06q2.68-.91,5.47-1.59A70.36,70.36,0,0,0,171.06,84.3Zm9.36-1.19q-3,.18-6,.61a67.4,67.4,0,0,1-4-6.5q3-.58,6.09-.89A70.31,70.31,0,0,0,180.41,83.11Zm10.7.18q-3.23-.3-6.54-.3h-.5a67.32,67.32,0,0,1-4.22-6.9q1.63-.08,3.29-.08,1.91,0,3.79.11A70.42,70.42,0,0,0,191.11,83.29Zm11.3-1.36q-1.23,1.42-2.6,2.73-2.26-.5-4.57-.86a67.32,67.32,0,0,1-4.65-7.38,66.32,66.32,0,0,1,9.51,1.77Q201.2,80.1,202.41,81.93ZM150,81.3q-2.74,1.48-5.32,3.2A40.18,40.18,0,0,1,139.9,79a66.81,66.81,0,0,1,6.55-4.58A70,70,0,0,0,150,81.3Zm7.41-3.47q-2.37.94-4.65,2.05a67,67,0,0,1-3.58-7q2.42-1.33,5-2.47A70.19,70.19,0,0,0,157.36,77.83Zm8.48-2.76q-2.83.72-5.56,1.67A66.93,66.93,0,0,1,157,69.2q2.82-1.11,5.77-2A69.91,69.91,0,0,0,165.85,75.07Zm9.23-1.7q-3.11.36-6.14,1a66.89,66.89,0,0,1-3.2-7.9q3.09-.74,6.29-1.18A70,70,0,0,0,175.07,73.36Zm10.35-.43q-1.13,0-2.28,0-2.42,0-4.8.16a67.1,67.1,0,0,1-3.19-8.15q3-.27,6.08-.27h1.12A69.92,69.92,0,0,0,185.42,72.94Zm12.72,1.59a69.52,69.52,0,0,0-9.22-1.39,67.06,67.06,0,0,1-3.3-8.35,66.49,66.49,0,0,1,8.95,1.2A70.06,70.06,0,0,0,198.14,74.52Zm9.94-1.13q-.87,1.76-1.89,3.41-2-.7-4-1.27a66.94,66.94,0,0,1-4-8.72,66.24,66.24,0,0,1,8.18,2.73Q207.15,71.5,208.08,73.39Zm-62.85-1.85a70,70,0,0,0-7.05,4.87,39.93,39.93,0,0,1-2.56-5,67.14,67.14,0,0,1,7.56-5.91Q144.07,68.58,145.23,71.54Zm7.85-4.09Q150.46,68.61,148,70q-1.17-3-2-6.21,2.63-1.59,5.4-2.94Q152,64.2,153.09,67.45Zm8.74-3.18q-3,.87-5.87,2a66.55,66.55,0,0,1-1.75-6.75q3-1.26,6-2.24A69.77,69.77,0,0,0,161.83,64.27Zm9.34-2q-3.22.47-6.34,1.22a66.73,66.73,0,0,1-1.58-7.07q3.17-.84,6.46-1.37A69.72,69.72,0,0,0,171.17,62.26Zm10.32-.72h-.26q-3.52,0-7,.34a66.46,66.46,0,0,1-1.5-7.26,67.27,67.27,0,0,1,7.29-.43A69.85,69.85,0,0,0,181.49,61.53Zm12,1.08a69.81,69.81,0,0,0-8.81-1,66.47,66.47,0,0,1-1.51-7.37,66.74,66.74,0,0,1,8.63.93A69.63,69.63,0,0,0,193.51,62.61Zm11.33,3A69.09,69.09,0,0,0,197,63.32a66.8,66.8,0,0,1-1.88-7.49,66.13,66.13,0,0,1,7.58,2.2A69.68,69.68,0,0,0,204.84,65.64ZM211.69,62a39.9,39.9,0,0,1-1.39,5.86l-1.59-.71a66.7,66.7,0,0,1-2.54-7.78Q209,60.58,211.69,62Zm-69.35.32a70.12,70.12,0,0,0-7.89,6,39.84,39.84,0,0,1-1.38-5.41,67.08,67.08,0,0,1,8.11-6.6Q141.63,59.37,142.35,62.34Zm8.37-4.67q-2.87,1.35-5.59,2.94-.68-3-1.08-6.19a66.67,66.67,0,0,1,5.89-3.24Q150.18,54.47,150.72,57.67Zm9.07-3.51q-3.14,1-6.14,2.22-.5-3.24-.69-6.56a66,66,0,0,1,6.31-2.32Q159.37,50.87,159.78,54.16Zm9.52-2.21q-3.31.53-6.51,1.36-.39-3.3-.46-6.68a66.2,66.2,0,0,1,6.59-1.35C168.95,47.53,169.08,49.75,169.31,51.95Zm10.39-.87a70.31,70.31,0,0,0-7.32.45q-.34-3.29-.35-6.65a67.23,67.23,0,0,1,7-.36h.37Q179.39,47.83,179.7,51.08Zm11.65.86a70,70,0,0,0-8.54-.82q-.32-3.22-.33-6.52a66.7,66.7,0,0,1,8.37,1Q191,48.79,191.35,51.94ZM202,54.5a69.21,69.21,0,0,0-7.42-2q-.43-3.12-.57-6.33a66.1,66.1,0,0,1,7.2,2.09Q201.43,51.44,202,54.5Zm10.16-1.19c0,.78.07,1.57.07,2.37q0,1.53-.11,3a69.4,69.4,0,0,0-6.74-3q-.61-3-.94-6.17A66.41,66.41,0,0,1,212.12,53.32Zm-71.36-.46a70.2,70.2,0,0,0-8.19,6.3q-.15-1.72-.15-3.47,0-1.51.11-3a67.09,67.09,0,0,1,7.9-6.24Q140.45,49.69,140.76,52.85Zm9-5q-3.12,1.44-6.07,3.18-.24-3.23-.17-6.54a66.45,66.45,0,0,1,6.38-3.36v.17C149.76,43.49,149.72,45.67,149.78,47.83Zm9.46-3.57q-3.26,1-6.39,2.23,0-2.48.15-5,.06-.88.14-1.75a66.09,66.09,0,0,1,6.52-2.2c-.11,1-.2,2-.27,3Q159.26,42.42,159.23,44.26ZM169,42.13q-3.37.49-6.62,1.29c0-.88.06-1.76.12-2.65q.14-2,.4-4a66.22,66.22,0,0,1,6.64-1.16c-.18,1.43-.33,2.87-.43,4.32C169,40.64,169,41.39,169,42.13Zm10.47-.72H179q-3.51,0-6.93.34,0-.82.09-1.65.16-2.45.5-4.84,2.47-.18,5-.18,1.18,0,2.34,0c-.2,1.51-.36,3-.46,4.58Q179.48,40.56,179.45,41.41Zm11.37,1a69.71,69.71,0,0,0-8.28-.91c0-.53.05-1.06.09-1.59q.16-2.33.47-4.61a66.45,66.45,0,0,1,8,1.15c-.07.7-.13,1.4-.17,2.1C190.88,39.84,190.84,41.13,190.82,42.41ZM201,44.95A69.14,69.14,0,0,0,193.91,43c0-1.41.05-2.83.15-4.25q.05-.81.13-1.61A66.09,66.09,0,0,1,201,39.29Q200.88,42.14,201,44.95Zm9.38-1.3a39.86,39.86,0,0,1,1.37,5.91,69.49,69.49,0,0,0-7.6-3.48q-.14-2.75-.06-5.55A66.54,66.54,0,0,1,210.35,43.65Zm-69.85-1A70.11,70.11,0,0,0,133.15,48a39.8,39.8,0,0,1,2.3-7.68,67.14,67.14,0,0,1,5.63-4.05c-.22,1.63-.4,3.27-.51,4.94C140.55,41.73,140.53,42.21,140.5,42.7Zm9.75-5.13a69.58,69.58,0,0,0-6.53,3.21q.26-3.33.82-6.56a66.38,66.38,0,0,1,6.84-3.34Q150.67,34.17,150.26,37.57Zm9.85-3.37q-3.34.87-6.55,2.05a67.26,67.26,0,0,1,1.33-6.73,66,66,0,0,1,6.6-2Q160.64,30.83,160.1,34.2ZM170,32.39q-3.36.37-6.62,1.05a67.49,67.49,0,0,1,1.51-6.59q3.22-.6,6.54-.88Q170.57,29.12,170,32.39ZM180.48,32q-1.4-.06-2.82-.06-2.25,0-4.47.14.61-3.23,1.51-6.33,1.19,0,2.38,0,2.4,0,4.76.17Q181,28.91,180.48,32Zm11,1.32a69.56,69.56,0,0,0-7.92-1.13q.56-3.06,1.39-6a66.33,66.33,0,0,1,7.6,1.35Q191.93,30.41,191.51,33.35Zm9.72,2.71a69.16,69.16,0,0,0-6.69-2q.4-2.89,1-5.69a66.08,66.08,0,0,1,6.38,2.2Q201.49,33.27,201.23,36.07Zm3.55-3.61a40,40,0,0,1,3.89,6.79q-2.18-1.08-4.44-2Q204.44,34.81,204.79,32.45ZM196.71,24q1.37,1.06,2.64,2.24-1.49-.5-3-.94C196.45,24.89,196.58,24.46,196.71,24Zm-9.14-5.33A39.71,39.71,0,0,1,194,22.13c-.25.8-.49,1.6-.71,2.41a69.41,69.41,0,0,0-7.43-1.35Q186.66,20.9,187.57,18.7Zm-9.23-2.58a39.42,39.42,0,0,1,6.32,1.5q-1.06,2.57-1.91,5.24-2.8-.23-5.67-.23H175.7A66.66,66.66,0,0,1,178.34,16.11ZM141.77,32.24q-1.58.93-3.1,1.94a40.16,40.16,0,0,1,3.78-5Q142.07,30.68,141.77,32.24Zm10.54-5.07a69.37,69.37,0,0,0-6.93,3.08q.66-2.76,1.54-5.43a39.9,39.9,0,0,1,7.93-5.13A69.77,69.77,0,0,0,152.3,27.17Zm10.15-3q-3.34.71-6.55,1.74A66.7,66.7,0,0,1,159,18a39.45,39.45,0,0,1,6.52-1.71A69.57,69.57,0,0,0,162.45,24.17Zm9.85-8.51q1.41,0,2.79.1a69.82,69.82,0,0,0-2.72,7q-3.27.22-6.46.73a66.7,66.7,0,0,1,3.19-7.74Q170.7,15.66,172.3,15.66Zm83.75,155.46q-2-.72-3.92-1.57l1.8-.82Q255,169.94,256.05,171.12Zm18.09,3.62a62.7,62.7,0,0,1-8.65-1q-3.55-3.32-6.79-7,3.15-1.22,6.4-2.25A111,111,0,0,0,274.14,174.74Zm15-1a62.71,62.71,0,0,1-8,1,106.08,106.08,0,0,1-11-11.66q4.07-1.06,8.25-1.79A111,111,0,0,0,289.17,173.7Zm12.6-3.84a62.2,62.2,0,0,1-7,2.49,106.06,106.06,0,0,1-10.85-11.91q4.65-.56,9.43-.71A111.21,111.21,0,0,0,301.78,169.86Zm11.3-6.25a62.7,62.7,0,0,1-6.66,4q-3.65-3.8-6.92-7.95a105.56,105.56,0,0,1,11.24.91C311.5,161.63,312.28,162.62,313.08,163.61Zm-62.38,1.21q-2.07,1-4.09,2a63,63,0,0,1-9.15-6.27q3.49-2.26,7.17-4.24Q247.47,160.7,250.7,164.82ZM262,160.35q-3.38,1.12-6.66,2.46a106.43,106.43,0,0,1-6.34-8.74q3.47-1.66,7.07-3.08Q258.81,155.82,262,160.35Zm13.32-3.51q-4.25.84-8.38,2a106.49,106.49,0,0,1-6.22-9.55q4.23-1.43,8.62-2.51A110.88,110.88,0,0,0,275.33,156.84ZM290.08,155q-4.78.28-9.45,1a106.29,106.29,0,0,1-6.33-10.24q4.73-.92,9.6-1.4A111,111,0,0,0,290.08,155Zm16.86.29q-5.09-.48-10.3-.48h-.79a106,106,0,0,1-6.65-10.88q2.57-.13,5.18-.13,3,0,6,.17A110.91,110.91,0,0,0,306.94,155.25Zm17.81-2.14q-1.95,2.24-4.09,4.3-3.56-.8-7.21-1.36a106.08,106.08,0,0,1-7.34-11.63,104.44,104.44,0,0,1,15,2.79Q322.83,150.22,324.75,153.12Zm-82.68-1q-4.31,2.34-8.38,5a63.41,63.41,0,0,1-7.47-8.65,105.45,105.45,0,0,1,10.32-7.21A110.49,110.49,0,0,0,242.07,152.12Zm11.67-5.47q-3.73,1.49-7.32,3.24a105.65,105.65,0,0,1-5.64-11.05q3.82-2.1,7.82-3.89A110.57,110.57,0,0,0,253.75,146.65Zm13.37-4.36q-4.46,1.14-8.77,2.64A105.56,105.56,0,0,1,253.12,133q4.45-1.74,9.1-3.09A110.18,110.18,0,0,0,267.11,142.29Zm14.54-2.68q-4.91.57-9.67,1.56a105.3,105.3,0,0,1-5-12.45q4.87-1.16,9.91-1.86A110.3,110.3,0,0,0,281.66,139.61Zm16.31-.67q-1.79-.06-3.59-.06-3.81,0-7.56.26a105.56,105.56,0,0,1-5-12.84q4.73-.43,9.58-.43h1.76A110.26,110.26,0,0,0,298,138.93Zm20,2.5a109.49,109.49,0,0,0-14.53-2.18,105.67,105.67,0,0,1-5.2-13.17,104.82,104.82,0,0,1,14.1,1.89A110.49,110.49,0,0,0,318,141.43Zm15.67-1.78q-1.36,2.77-3,5.38-3.13-1.1-6.34-2A105.4,105.4,0,0,1,318,129.29a104.33,104.33,0,0,1,12.89,4.3Q332.22,136.67,333.68,139.66Zm-99-2.92a110.29,110.29,0,0,0-11.11,7.68,62.92,62.92,0,0,1-4-7.86,105.81,105.81,0,0,1,11.91-9.32Q232.8,132.07,234.63,136.73ZM247,130.29q-4.14,1.83-8.09,4-1.84-4.79-3.22-9.79,4.14-2.5,8.52-4.63Q245.36,125.17,247,130.29Zm13.78-5q-4.72,1.37-9.26,3.13a104.85,104.85,0,0,1-2.76-10.64q4.65-2,9.52-3.53A109.9,109.9,0,0,0,260.79,125.28Zm14.72-3.18q-5.08.73-10,1.93A105.17,105.17,0,0,1,263,112.88q5-1.32,10.18-2.16A109.87,109.87,0,0,0,275.5,122.1ZM291.77,121h-.41q-5.55,0-11,.54A104.89,104.89,0,0,1,278,110.06a105.86,105.86,0,0,1,11.49-.67A110,110,0,0,0,291.77,121Zm19,1.7a110.06,110.06,0,0,0-13.89-1.57,104.65,104.65,0,0,1-2.38-11.62,105.07,105.07,0,0,1,13.59,1.46A109.77,109.77,0,0,0,310.72,122.67Zm17.85,4.77a109.09,109.09,0,0,0-12.42-3.66,105.12,105.12,0,0,1-3-11.81,104.12,104.12,0,0,1,11.95,3.47A109.78,109.78,0,0,0,328.58,127.44Zm10.8-5.71a62.85,62.85,0,0,1-2.19,9.23q-1.24-.57-2.5-1.11a104.9,104.9,0,0,1-4-12.26Q335.14,119.46,339.37,121.73Zm-109.3.5a110.58,110.58,0,0,0-12.44,9.42,62.84,62.84,0,0,1-2.18-8.53,105.75,105.75,0,0,1,12.79-10.4Q229,117.55,230.08,122.24Zm13.19-7.36q-4.52,2.13-8.8,4.64-1.07-4.8-1.7-9.75a104.91,104.91,0,0,1,9.28-5.11Q242.42,109.83,243.27,114.88Zm14.29-5.53q-4.94,1.52-9.68,3.49-.79-5.1-1.09-10.34a104.22,104.22,0,0,1,9.94-3.65Q256.9,104.16,257.56,109.35Zm15-3.49q-5.21.83-10.26,2.14-.62-5.2-.73-10.53A104.36,104.36,0,0,1,272,95.34C272,98.89,272.21,102.39,272.57,105.86Zm16.37-1.36a110.79,110.79,0,0,0-11.53.71q-.53-5.18-.55-10.48a105.89,105.89,0,0,1,11-.57h.58Q288.46,99.37,288.95,104.49Zm18.36,1.36a110.29,110.29,0,0,0-13.45-1.3q-.5-5.08-.52-10.27a105.12,105.12,0,0,1,13.19,1.51Q306.69,100.88,307.31,105.85Zm16.73,4a109,109,0,0,0-11.69-3.11q-.68-4.92-.9-10a104.27,104.27,0,0,1,11.34,3.29Q323.2,105,324,109.88ZM340,108c.07,1.23.11,2.48.11,3.73q0,2.41-.18,4.78a109.37,109.37,0,0,0-10.63-4.75q-1-4.8-1.48-9.73A104.69,104.69,0,0,1,340,108Zm-112.47-.73a110.65,110.65,0,0,0-12.91,9.93q-.23-2.7-.23-5.47,0-2.37.17-4.7a105.79,105.79,0,0,1,12.44-9.84Q227.09,102.29,227.58,107.28Zm14.21-7.91q-4.92,2.28-9.56,5-.38-5.1-.27-10.3A104.83,104.83,0,0,1,242,88.78c0,.09,0,.18,0,.27C241.77,92.52,241.7,96,241.79,99.37Zm14.91-5.62q-5.14,1.52-10.07,3.52,0-3.91.24-7.88.09-1.39.22-2.77a104.16,104.16,0,0,1,10.27-3.47c-.17,1.58-.32,3.16-.43,4.76Q256.74,90.84,256.7,93.74Zm15.35-3.36q-5.31.77-10.44,2c0-1.39.1-2.78.19-4.18.14-2.14.36-4.27.63-6.37A104.5,104.5,0,0,1,272.9,80c-.29,2.25-.52,4.52-.67,6.81C272.15,88,272.09,89.21,272.05,90.38Zm16.5-1.13h-.67q-5.53,0-10.93.54.06-1.3.14-2.6.26-3.86.79-7.63,3.89-.29,7.86-.29,1.85,0,3.69.06c-.32,2.38-.56,4.79-.73,7.22Q288.61,87.9,288.55,89.25Zm17.92,1.57a109.93,109.93,0,0,0-13-1.43c0-.83.08-1.67.14-2.5q.25-3.68.74-7.27A104.67,104.67,0,0,1,307,81.42c-.11,1.1-.2,2.2-.28,3.31Q306.51,87.79,306.48,90.82Zm16,4a109,109,0,0,0-11.13-3.05c0-2.22.08-4.46.23-6.7q.08-1.27.2-2.53a104.2,104.2,0,0,1,10.76,3.38Q322.34,90.4,322.48,94.82Zm14.78-2a62.86,62.86,0,0,1,2.16,9.31,109.44,109.44,0,0,0-12-5.48q-.23-4.34-.1-8.75A104.77,104.77,0,0,1,337.26,92.77Zm-110.09-1.5a110.52,110.52,0,0,0-11.59,8.41,62.71,62.71,0,0,1,3.63-12.11,105.72,105.72,0,0,1,8.88-6.39q-.53,3.85-.8,7.78C227.25,89.74,227.21,90.51,227.17,91.27Zm15.37-8.08a109.54,109.54,0,0,0-10.3,5.06q.4-5.26,1.3-10.35a104.59,104.59,0,0,1,10.78-5.26Q243.19,77.83,242.55,83.19Zm15.52-5.31q-5.27,1.37-10.32,3.24a106.08,106.08,0,0,1,2.1-10.6,104.21,104.21,0,0,1,10.4-3.08Q258.91,72.57,258.07,77.89ZM273.66,75q-5.3.58-10.44,1.66a106.26,106.26,0,0,1,2.38-10.38q5.07-.94,10.31-1.39Q274.56,69.88,273.66,75Zm16.53-.57q-2.21-.09-4.44-.09-3.55,0-7,.22,1-5.09,2.38-10,1.87-.07,3.76-.07,3.79,0,7.51.27Q291.05,69.55,290.18,74.46Zm17.39,2.09a109.54,109.54,0,0,0-12.48-1.78q.88-4.83,2.19-9.49a104.53,104.53,0,0,1,12,2.13Q308.23,71.9,307.57,76.54Zm15.32,4.28a109,109,0,0,0-10.54-3.2q.63-4.56,1.62-9A104.31,104.31,0,0,1,324,72.12Q323.29,76.41,322.89,80.82Zm5.6-5.69a63,63,0,0,1,6.14,10.71q-3.43-1.71-7-3.18Q327.94,78.85,328.49,75.13ZM315.75,61.84q2.16,1.68,4.16,3.53-2.35-.79-4.75-1.48C315.35,63.21,315.55,62.52,315.75,61.84Zm-14.4-8.4a62.63,62.63,0,0,1,10.21,5.41c-.39,1.26-.78,2.52-1.13,3.8a109.26,109.26,0,0,0-11.71-2.13Q299.92,56.92,301.36,53.45Zm-14.55-4.07a62.25,62.25,0,0,1,10,2.37q-1.67,4-3,8.26-4.42-.36-8.93-.36l-2.19,0A105.23,105.23,0,0,1,286.81,49.38ZM229.16,74.79q-2.48,1.46-4.88,3.05a63.33,63.33,0,0,1,6-7.92Q229.65,72.34,229.16,74.79Zm16.61-8a109.38,109.38,0,0,0-10.93,4.86q1-4.35,2.42-8.56A62.89,62.89,0,0,1,249.76,55,109.87,109.87,0,0,0,245.77,66.81Zm16-4.73q-5.26,1.13-10.32,2.74a105.07,105.07,0,0,1,4.81-12.54,62.22,62.22,0,0,1,10.28-2.7A109.88,109.88,0,0,0,261.77,62.08ZM277.3,48.66q2.22,0,4.4.15a110.13,110.13,0,0,0-4.28,11.08q-5.16.34-10.18,1.16a105,105,0,0,1,5-12.19Q274.76,48.66,277.3,48.66ZM74.69,318q-3.57-1.29-7-2.81,1.61-.76,3.24-1.48Q72.76,315.88,74.69,318Zm32.46,6.5a112.52,112.52,0,0,1-15.53-1.86q-6.38-6-12.18-12.49,5.66-2.2,11.49-4A199.32,199.32,0,0,0,107.15,324.5Zm27-1.88a112.51,112.51,0,0,1-14.36,1.81A190.35,190.35,0,0,1,100,303.5q7.3-1.9,14.82-3.22A199.19,199.19,0,0,0,134.14,322.62Zm22.62-6.89a111.77,111.77,0,0,1-12.53,4.46,190.38,190.38,0,0,1-19.47-21.38q8.35-1,16.92-1.28A199.7,199.7,0,0,0,156.76,315.73ZM177,304.52a112.67,112.67,0,0,1-12,7.26q-6.56-6.82-12.42-14.26a189.28,189.28,0,0,1,20.16,1.63C174.2,301,175.61,302.75,177,304.52ZM65.09,306.69q-3.71,1.71-7.34,3.57A113,113,0,0,1,41.33,299q6.27-4,12.86-7.61Q59.28,299.3,65.09,306.69Zm20.3-8q-6.07,2-12,4.41A191,191,0,0,1,62,287.39q6.22-3,12.69-5.53Q79.65,290.54,85.39,298.66Zm23.9-6.29q-7.63,1.5-15,3.58a191.16,191.16,0,0,1-11.16-17.14q7.59-2.57,15.46-4.5A198.93,198.93,0,0,0,109.29,292.37ZM135.76,289q-8.58.51-17,1.74a190.74,190.74,0,0,1-11.36-18.38q8.48-1.65,17.22-2.52A199.11,199.11,0,0,0,135.76,289Zm30.27.51q-9.13-.85-18.49-.86h-1.42a190.27,190.27,0,0,1-11.94-19.52q4.62-.23,9.3-.23,5.39,0,10.71.3A199,199,0,0,0,166,289.52Zm32-3.83q-3.49,4-7.35,7.71Q184.24,292,177.7,291a190.22,190.22,0,0,1-13.17-20.88,187.66,187.66,0,0,1,26.91,5Q194.55,280.5,198,285.69ZM49.6,283.9q-7.74,4.2-15,9.05a113.75,113.75,0,0,1-13.4-15.53,189.17,189.17,0,0,1,18.52-12.94A198.13,198.13,0,0,0,49.6,283.9Zm21-9.82q-6.69,2.67-13.14,5.81A189.57,189.57,0,0,1,47.29,260q6.85-3.77,14-7A198.6,198.6,0,0,0,70.55,274.08Zm24-7.82q-8,2-15.73,4.74a189.37,189.37,0,0,1-9.38-21.33q8-3.13,16.32-5.54A198,198,0,0,0,94.55,266.26Zm26.1-4.82q-8.8,1-17.36,2.8a189.07,189.07,0,0,1-9-22.34q8.74-2.08,17.78-3.34A198,198,0,0,0,120.65,261.44Zm29.27-1.21q-3.21-.1-6.45-.1-6.84,0-13.57.46a189.6,189.6,0,0,1-9-23.05q8.49-.77,17.19-.78l3.16,0A197.77,197.77,0,0,0,149.92,260.23Zm36,4.49a196.61,196.61,0,0,0-26.08-3.92,189.72,189.72,0,0,1-9.33-23.63,188.17,188.17,0,0,1,25.3,3.38A198.27,198.27,0,0,0,185.9,264.72ZM214,261.53q-2.45,5-5.36,9.66-5.62-2-11.39-3.61A189.26,189.26,0,0,1,186,242.92a187.11,187.11,0,0,1,23.13,7.72Q211.4,256.16,214,261.53ZM36.25,256.28A198.05,198.05,0,0,0,16.3,270.07,113,113,0,0,1,9.07,256a189.85,189.85,0,0,1,21.38-16.73Q33,247.92,36.25,256.28Zm22.21-11.56Q51,248,43.94,251.87q-3.3-8.6-5.77-17.57,7.43-4.49,15.29-8.31Q55.5,235.52,58.46,244.72Zm24.73-9q-8.47,2.45-16.61,5.63a188.2,188.2,0,0,1-4.95-19.09q8.35-3.57,17.09-6.34A197.37,197.37,0,0,0,83.19,235.72ZM109.6,230q-9.11,1.32-17.94,3.46a188.75,188.75,0,0,1-4.47-20q9-2.38,18.27-3.88A197.41,197.41,0,0,0,109.6,230Zm29.19-2h-.74q-10,0-19.69,1a188.15,188.15,0,0,1-4.24-20.55,190.06,190.06,0,0,1,20.62-1.21A197.5,197.5,0,0,0,138.79,228Zm34,3.06a197.46,197.46,0,0,0-24.93-2.82,187.93,187.93,0,0,1-4.26-20.85A188.69,188.69,0,0,1,168,210,197.06,197.06,0,0,0,172.82,231Zm32,8.56a195.56,195.56,0,0,0-22.3-6.57,188.77,188.77,0,0,1-5.31-21.19,186.86,186.86,0,0,1,21.44,6.22A197,197,0,0,0,204.86,239.6Zm19.38-10.24a112.86,112.86,0,0,1-3.93,16.56q-2.23-1-4.49-2a188.53,188.53,0,0,1-7.18-22Q216.63,225.29,224.23,229.36Zm-196.16.91A198.41,198.41,0,0,0,5.74,247.17a112.66,112.66,0,0,1-3.91-15.31,189.84,189.84,0,0,1,23-18.67Q26.06,221.85,28.07,230.26Zm23.68-13.2q-8.11,3.81-15.8,8.33Q34,216.77,32.9,207.89a188.29,188.29,0,0,1,16.66-9.17Q50.23,208,51.75,217.06Zm25.65-9.93Q68.53,209.87,60,213.4q-1.42-9.16-2-18.56a187.06,187.06,0,0,1,17.85-6.55Q76.22,197.82,77.41,207.13Zm26.94-6.26q-9.36,1.49-18.41,3.84-1.11-9.33-1.3-18.9A187.16,187.16,0,0,1,103.28,182C103.33,188.36,103.7,194.65,104.34,200.87Zm29.38-2.45a198.88,198.88,0,0,0-20.7,1.27q-1-9.29-1-18.81a190.08,190.08,0,0,1,19.78-1h1Q132.86,189.23,133.73,198.42Zm33,2.44a197.92,197.92,0,0,0-24.14-2.33q-.9-9.11-.93-18.43a188.7,188.7,0,0,1,23.67,2.72Q165.57,191.93,166.68,200.86Zm30,7.23a195.79,195.79,0,0,0-21-5.58q-1.22-8.83-1.61-17.89a187,187,0,0,1,20.36,5.91Q195.2,199.41,196.71,208.09Zm28.73-3.36c.13,2.22.2,4.45.2,6.7q0,4.33-.32,8.58a196.12,196.12,0,0,0-19.07-8.53q-1.72-8.61-2.65-17.46A187.89,187.89,0,0,1,225.44,204.73ZM23.59,203.42A198.59,198.59,0,0,0,.42,221.24Q0,216.39,0,211.43q0-4.26.31-8.44a189.89,189.89,0,0,1,22.33-17.66Q22.7,194.47,23.59,203.42Zm25.5-14.2q-8.82,4.09-17.16,9-.68-9.15-.48-18.49a188.13,188.13,0,0,1,18.06-9.5c0,.16,0,.32,0,.49C49.05,176.94,48.94,183.11,49.09,189.22Zm26.76-10.09q-9.23,2.73-18.07,6.32,0-7,.42-14.15.17-2.49.4-5A187,187,0,0,1,77,160.12c-.31,2.83-.58,5.67-.77,8.54Q75.92,173.91,75.85,179.13Zm27.56-6q-9.52,1.38-18.73,3.65c.07-2.49.17-5,.34-7.5.26-3.85.64-7.66,1.12-11.43a187.35,187.35,0,0,1,18.79-3.27c-.52,4-.93,8.11-1.21,12.22C103.58,168.88,103.48,171,103.41,173.09Zm29.62-2h-1.21q-9.93,0-19.61,1,.1-2.33.25-4.67.46-6.92,1.42-13.69,7-.52,14.1-.52,3.32,0,6.62.11c-.57,4.28-1,8.6-1.3,13Q133.13,168.65,133,171.06Zm32.17,2.82a197.45,197.45,0,0,0-23.41-2.57c.07-1.49.14-3,.24-4.49q.44-6.6,1.33-13A188,188,0,0,1,166.12,157c-.19,2-.36,4-.49,5.94Q165.25,168.44,165.19,173.88Zm28.73,7.18a195.64,195.64,0,0,0-20-5.48c0-4,.15-8,.42-12q.15-2.28.36-4.55A187,187,0,0,1,194,165.07Q193.66,173.12,193.92,181.06Zm26.52-3.67a112.78,112.78,0,0,1,3.88,16.71,196.46,196.46,0,0,0-21.49-9.83q-.41-7.78-.17-15.7A188.12,188.12,0,0,1,220.45,177.38ZM22.86,174.7a198.29,198.29,0,0,0-20.8,15.1,112.55,112.55,0,0,1,6.52-21.73A189.49,189.49,0,0,1,24.52,156.6c-.63,4.6-1.12,9.26-1.44,14C23,171.95,22.93,173.32,22.86,174.7Zm27.59-14.5A196.64,196.64,0,0,0,32,169.28q.73-9.43,2.33-18.57a187.78,187.78,0,0,1,19.34-9.44Q51.62,150.57,50.45,160.19Zm27.85-9.52q-9.46,2.46-18.53,5.81a190.41,190.41,0,0,1,3.76-19,186.82,186.82,0,0,1,18.66-5.53Q79.82,141.13,78.31,150.67Zm28-5.14q-9.51,1-18.74,3a190.6,190.6,0,0,1,4.28-18.63q9.11-1.69,18.5-2.49Q107.9,136.29,106.29,145.54Zm29.66-1q-4-.16-8-.16-6.37,0-12.64.4,1.72-9.13,4.27-17.92,3.36-.12,6.74-.12,6.79,0,13.47.48Q137.51,135.7,135.95,144.51Zm31.21,3.74a196.75,196.75,0,0,0-22.41-3.2q1.59-8.67,3.93-17a187.61,187.61,0,0,1,21.5,3.82Q168.34,139.93,167.15,148.26Zm27.5,7.68a195.73,195.73,0,0,0-18.92-5.75q1.12-8.18,2.92-16.1a187.34,187.34,0,0,1,18,6.22Q195.38,148,194.65,155.94Zm10.06-10.21a113.15,113.15,0,0,1,11,19.21q-6.15-3.07-12.55-5.71Q203.71,152.4,204.7,145.72Zm-22.86-23.85q3.87,3,7.47,6.34-4.22-1.42-8.53-2.66C181.12,124.32,181.48,123.1,181.84,121.87ZM156,106.81a112.34,112.34,0,0,1,18.33,9.7c-.71,2.26-1.39,4.52-2,6.82a196.23,196.23,0,0,0-21-3.83Q153.42,113,156,106.81Zm-26.11-7.3a111.75,111.75,0,0,1,17.89,4.25q-3,7.26-5.41,14.82-7.93-.64-16-.64-2,0-3.93,0A188.78,188.78,0,0,1,129.89,99.5ZM26.43,145.12q-4.46,2.63-8.76,5.48a113.57,113.57,0,0,1,10.69-14.21Q27.31,140.71,26.43,145.12Zm29.8-14.33a196.28,196.28,0,0,0-19.61,8.73q1.86-7.81,4.34-15.36a112.89,112.89,0,0,1,22.43-14.52A197.36,197.36,0,0,0,56.24,130.78ZM85,122.29q-9.44,2-18.52,4.92a188.55,188.55,0,0,1,8.63-22.5,111.61,111.61,0,0,1,18.44-4.85A197.21,197.21,0,0,0,85,122.29Zm27.87-24.08q4,0,7.9.27A197.55,197.55,0,0,0,113,118.38q-9.25.62-18.26,2.08a188.55,188.55,0,0,1,9-21.88Q108.27,98.22,112.82,98.21Z"/></clipPath><linearGradient id="Безымянный_градиент" y1="154.42" x2="225.65" y2="154.42" gradientUnits="userSpaceOnUse"><stop offset="0" stop-color="#89c242"/><stop offset="1" stop-color="#549364"/></linearGradient></defs><title>fav</title><g class="cls-2"><rect class="cls-3" width="340.16" height="308.84"/></g></svg>