<?xml version="1.0" encoding="utf-8"?>
<!-- Generator: Adobe Illustrator 20.0.0, SVG Export Plug-In . SVG Version: 6.00 Build 0)  -->
<svg version="1.1" id="Capa_1" xmlns="http://www.w3.org/2000/svg" xmlns:xlink="http://www.w3.org/1999/xlink" x="0px" y="0px"
	 viewBox="0 0 62.4 70.9" style="enable-background:new 0 0 62.4 70.9;" xml:space="preserve">
<style type="text/css">
	.st0{fill:#888888;}
</style>
<g>
	<g>
		<path class="st0" d="M61.5,11.4c0-0.1,0-0.1,0-0.2V1.8c0-1-0.7-1.8-1.7-1.8c0,0,0,0-0.1,0H2.6c-1,0-1.8,0.8-1.7,1.8c0,0,0,0,0,0.1
			v9.5c0,0.1,0,0.1,0,0.2c0,0,0,0.1,0,0.1c0,0,0,0.1,0,0.1c0,0,0,0.1,0,0.1c0,0,0,0.1,0,0.1s0,0.1,0,0.1c0,0,0,0.1,0,0.1
			c0,0,0,0.1,0,0.1c0,0,0,0.1,0,0.1s0,0.1,0,0.1s0,0.1,0,0.1c0,0,0,0.1,0,0.1c0,0,0,0.1,0.1,0.1c0,0,0,0,0,0.1c0,0,0,0,0.1,0
			L23,38.1v31c0,0.7,0.4,1.3,1,1.6c0.2,0.1,0.5,0.2,0.8,0.2c0.4,0,0.8-0.1,1.1-0.4l12.8-10.4c0.4-0.3,0.7-0.9,0.6-1.4V38.1
			l21.8-25.6c0,0,0,0,0,0c0,0,0,0,0.1-0.1c0,0,0-0.1,0.1-0.1c0,0,0-0.1,0.1-0.1c0,0,0-0.1,0-0.1c0,0,0-0.1,0-0.1c0,0,0-0.1,0-0.1
			c0,0,0-0.1,0-0.1c0,0,0-0.1,0-0.1c0,0,0-0.1,0-0.1c0,0,0-0.1,0-0.1c0,0,0-0.1,0-0.1C61.5,11.6,61.6,11.5,61.5,11.4
			C61.6,11.5,61.5,11.5,61.5,11.4z M36.2,36.2c-0.3,0.3-0.5,0.7-0.5,1.2v20.4l-9.1,7.5V37.4c0-0.4-0.2-0.9-0.5-1.2L6.5,13.1h49.4
			L36.2,36.2z M57.9,9.4H4.5V3.6h53.4V9.4z"/>
	</g>
</g>
</svg>
