<svg id="Capa_1" data-name="Capa 1" xmlns="http://www.w3.org/2000/svg" xmlns:xlink="http://www.w3.org/1999/xlink" viewBox="0 0 31 31"><defs><style>.cls-1{fill:url(#Degradado_sin_nombre_2);}.cls-2{fill:#fff;}</style><radialGradient id="Degradado_sin_nombre_2" cx="-0.78" cy="31.1" r="57.32" gradientUnits="userSpaceOnUse"><stop offset="0" stop-color="#f5ec53"/><stop offset="0.24" stop-color="#e48244"/><stop offset="0.4" stop-color="#d15767"/><stop offset="0.49" stop-color="#c84278"/><stop offset="1" stop-color="#192cfa"/></radialGradient></defs><title>inst</title><g id="_Группа_" data-name="&lt;Группа&gt;"><path id="_Контур_" data-name="&lt;Контур&gt;" class="cls-1" d="M15.5,31h0A15.5,15.5,0,0,1,0,15.5H0A15.5,15.5,0,0,1,15.5,0h0A15.5,15.5,0,0,1,31,15.5h0A15.5,15.5,0,0,1,15.5,31Z" transform="translate(0 0)"/><g id="_Группа_2" data-name="&lt;Группа&gt;"><path id="_Составной_контур_" data-name="&lt;Составной контур&gt;" class="cls-2" d="M15.5,8.53c2.27,0,2.54,0,3.43,0a4.7,4.7,0,0,1,1.58.29,2.81,2.81,0,0,1,1.61,1.61,4.7,4.7,0,0,1,.29,1.58c0,.9,0,1.16,0,3.43s0,2.54,0,3.43a4.7,4.7,0,0,1-.29,1.58,2.81,2.81,0,0,1-1.61,1.61,4.7,4.7,0,0,1-1.58.29c-.9,0-1.16,0-3.43,0s-2.54,0-3.43,0a4.7,4.7,0,0,1-1.58-.29,2.81,2.81,0,0,1-1.61-1.61,4.71,4.71,0,0,1-.29-1.58c0-.9,0-1.16,0-3.43s0-2.54,0-3.43a4.71,4.71,0,0,1,.29-1.58,2.81,2.81,0,0,1,1.61-1.61,4.7,4.7,0,0,1,1.58-.29c.9,0,1.17,0,3.43,0M15.5,7c-2.31,0-2.6,0-3.5.05a6.24,6.24,0,0,0-2.06.4A4.34,4.34,0,0,0,7.45,9.93,6.23,6.23,0,0,0,7.05,12C7,12.9,7,13.19,7,15.5s0,2.6.05,3.5a6.23,6.23,0,0,0,.4,2.06,4.34,4.34,0,0,0,2.49,2.49,6.24,6.24,0,0,0,2.06.4c.91,0,1.2.05,3.5.05s2.6,0,3.5-.05a6.24,6.24,0,0,0,2.06-.4,4.35,4.35,0,0,0,2.49-2.49,6.24,6.24,0,0,0,.4-2.06c0-.91.05-1.2.05-3.5s0-2.6-.05-3.5a6.24,6.24,0,0,0-.4-2.06,4.35,4.35,0,0,0-2.49-2.49A6.24,6.24,0,0,0,19,7.05C18.1,7,17.81,7,15.5,7" transform="translate(0 0)"/><path id="_Составной_контур_2" data-name="&lt;Составной контур&gt;" class="cls-2" d="M15.5,11.14a4.36,4.36,0,1,0,4.36,4.36,4.36,4.36,0,0,0-4.36-4.36m0,7.2a2.83,2.83,0,1,1,2.83-2.83,2.83,2.83,0,0,1-2.83,2.83" transform="translate(0 0)"/><path id="_Контур_2" data-name="&lt;Контур&gt;" class="cls-2" d="M21.06,11a1,1,0,1,1-1-1,1,1,0,0,1,1,1" transform="translate(0 0)"/></g></g></svg>