<?xml version="1.0" encoding="utf-8"?>
<!-- Generator: Adobe Illustrator 20.0.0, SVG Export Plug-In . SVG Version: 6.00 Build 0)  -->
<svg version="1.1" id="Capa_1" xmlns="http://www.w3.org/2000/svg" xmlns:xlink="http://www.w3.org/1999/xlink" x="0px" y="0px"
	 viewBox="0 0 153.1 209.8" style="enable-background:new 0 0 153.1 209.8;" xml:space="preserve">
<style type="text/css">
	.st0{fill:#EBEBEB;}
</style>
<g>
	<g>
		<path class="st0" d="M73.4,157.9c-2.5,0-4.2,0.2-5.1,0.4V191c1,0.2,2.5,0.2,3.9,0.2c10.3,0.1,17-5.6,17-17.5
			C89.3,163.4,83.2,157.9,73.4,157.9z"/>
		<path class="st0" d="M29.6,157.8c-2.3,0-3.9,0.2-4.7,0.4V173c1,0.2,2.2,0.3,3.8,0.3c6,0,9.8-3,9.8-8.1
			C38.4,160.5,35.2,157.8,29.6,157.8z"/>
		<path class="st0" d="M153,50.3c0-1-0.3-1.9-1-2.7L111.4,1.4c0,0,0,0,0,0c-0.2-0.3-0.5-0.5-0.8-0.7c-0.1-0.1-0.2-0.1-0.3-0.2
			c-0.3-0.1-0.5-0.3-0.8-0.3c-0.1,0-0.1-0.1-0.2-0.1C108.9,0,108.6,0,108.3,0H8.3C3.7,0,0,3.7,0,8.2v193.3c0,4.5,3.7,8.2,8.3,8.2
			h136.5c4.6,0,8.3-3.7,8.3-8.2V50.7C153.1,50.6,153,50.4,153,50.3z M45.1,176.7c-3.9,3.6-9.6,5.3-16.3,5.3c-1.5,0-2.8-0.1-3.9-0.2
			v17.8H13.7v-49.2c3.5-0.6,8.4-1,15.3-1c7,0,12,1.3,15.3,4c3.2,2.5,5.4,6.7,5.4,11.5C49.7,169.7,48.1,173.8,45.1,176.7z M93,193.6
			c-5.3,4.4-13.3,6.4-23.1,6.4c-5.9,0-10.1-0.4-12.9-0.7v-49c4.2-0.7,9.6-1,15.3-1c9.5,0,15.7,1.7,20.5,5.3c5.2,3.8,8.5,10,8.5,18.8
			C101.3,183,97.8,189.5,93,193.6z M139.4,158.9h-19.3v11.4h18v9.2h-18v20.1h-11.4v-49.9h30.7V158.9z M8.3,139.7V8.2h95.8v42.1
			c0,2.3,1.9,4.1,4.1,4.1h36.5l0,85.2H8.3z"/>
		<path class="st0" d="M119,88.4c-0.2,0-6.1-0.6-15-0.6c-2.8,0-5.6,0.1-8.4,0.2C77.9,74.8,63.4,61.6,55.6,54.2
			c0.1-0.8,0.2-1.5,0.3-2c1-10.7-0.1-18-3.4-21.5c-2.1-2.3-5.3-3.1-8.5-2.2c-2,0.5-5.8,2.5-7,6.5c-1.3,4.4,0.8,9.7,6.4,15.9
			c0.1,0.1,2,2.1,5.4,5.4c-2.2,10.6-8.1,33.6-11,44.6c-6.7,3.6-12.3,7.8-16.6,12.7l-0.3,0.3l-0.2,0.4c-0.4,0.9-2.6,5.7-1,9.6
			c0.7,1.8,2.1,3,3.9,3.7l0.5,0.1c0,0,0.4,0.1,1.2,0.1c3.5,0,12-1.8,16.5-18.5l1.1-4.2c16-7.7,35.9-10.2,50.3-10.9
			c7.4,5.5,14.8,10.5,22,15l0.2,0.1c0.3,0.2,3.5,1.7,7.2,1.7l0,0c5.3,0,9.1-3.2,10.5-8.8l0.1-0.4c0.4-3.2-0.4-6.1-2.3-8.3
			C127.2,88.8,119.7,88.4,119,88.4z M25.7,121.8c0,0,0-0.1-0.1-0.1c-0.3-0.8,0.1-2.8,0.7-4.3c2.6-2.9,5.7-5.5,9.3-7.9
			C32.2,120.7,27.1,121.7,25.7,121.8z M48,46.7L48,46.7c-5.4-6-5.3-8.9-5-9.9c0.5-1.7,2.6-2.3,2.6-2.3c1.1-0.3,1.7-0.2,2.3,0.4
			c1.3,1.4,2.5,5.8,2,13.8C48.7,47.4,48,46.7,48,46.7z M45.2,97.5l0.1-0.4l0,0c2.7-10.5,6.6-25.9,8.8-35.8l0.1,0.1l0,0
			c7.2,6.8,18.3,16.7,31.6,27l-0.1,0l0.2,0.2C73.4,89.6,58.5,92.1,45.2,97.5z M127.5,101c-1,3.5-2.8,4-4.5,4l0,0c-2,0-3.8-0.8-4.3-1
			c-4.9-3-9.9-6.4-14.9-9.9c0,0,0.1,0,0.1,0c8.6,0,14.4,0.5,14.6,0.5c1.4,0.1,6,0.7,8,3C127.3,98.5,127.6,99.6,127.5,101z"/>
	</g>
</g>
</svg>
