<?xml version="1.0" encoding="utf-8"?>
<!-- Generator: Adobe Illustrator 20.0.0, SVG Export Plug-In . SVG Version: 6.00 Build 0)  -->
<svg version="1.1" id="Capa_1" xmlns="http://www.w3.org/2000/svg" xmlns:xlink="http://www.w3.org/1999/xlink" x="0px" y="0px"
	 viewBox="0 0 155.9 212.6" style="enable-background:new 0 0 155.9 212.6;" xml:space="preserve">
<style type="text/css">
	.st0{fill:#EBEBEB;}
</style>
<g>
	<g>
		<path class="st0" d="M155.4,58.3c-0.3-0.8-0.8-1.5-1.4-2.1l-52-52c-0.6-0.6-1.3-1.1-2.1-1.4c-0.8-0.3-1.6-0.5-2.5-0.5H13
			c-7.2,0-13,5.8-13,13v181.9c0,7.2,5.8,13,13,13h129.9c7.2,0,13-5.8,13-13V60.8C155.9,60,155.7,59.1,155.4,58.3z M103.9,24.5
			l29.8,29.8h-29.8V24.5z M142.9,197.2H13V15.4h78v39c0,7.2,5.8,13,13,13h39V197.2z"/>
	</g>
</g>
<g>
	<g>
		<path class="st0" d="M85.6,80.4c-0.2,0-0.4,0-0.6,0c-0.2,0-0.4-0.1-0.6-0.1c-0.2,0-0.5,0.1-0.7,0.1c-0.4,0-0.8,0.1-1.2,0.2
			c-0.4,0.1-0.8,0.3-1.2,0.5c-0.3,0.2-0.6,0.4-0.9,0.6c-0.4,0.3-0.7,0.6-1,1c-0.2,0.3-0.4,0.6-0.6,0.9c-0.2,0.4-0.4,0.8-0.5,1.3
			c-0.1,0.2-0.2,0.4-0.2,0.6c0,0.2,0,0.4,0,0.6c0,0.2-0.1,0.4-0.1,0.6v61.1c-3.8-1.6-8.2-2.6-13-2.6c-14.6,0-26,8.6-26,19.5
			s11.4,19.5,26,19.5s26-8.6,26-19.5v-69c5.9,2.6,13,7.5,13,16.2c0,3.6,2.9,6.5,6.5,6.5c3.6,0,6.5-2.9,6.5-6.5
			C116.9,91.7,96.5,82.5,85.6,80.4z M65,171.3c-7.9,0-13-3.8-13-6.5c0-2.7,5.1-6.5,13-6.5s13,3.8,13,6.5
			C78,167.4,72.9,171.3,65,171.3z"/>
	</g>
</g>
</svg>
