<?xml version="1.0" encoding="utf-8"?>
<!-- Generator: Adobe Illustrator 20.0.0, SVG Export Plug-In . SVG Version: 6.00 Build 0)  -->
<svg version="1.1" id="Capa_1" xmlns="http://www.w3.org/2000/svg" xmlns:xlink="http://www.w3.org/1999/xlink" x="0px" y="0px"
	 viewBox="0 0 153.1 124.7" style="enable-background:new 0 0 153.1 124.7;" xml:space="preserve">
<style type="text/css">
	.st0{fill:#EBEBEB;}
</style>
<g>
	<g>
		<path class="st0" d="M149.9,50.3c-8.1-29.1-28.2-50.2-47.7-50.2c-1.6,0-3.1,0.1-4.7,0.4c-0.9,0.2-1.6,0.7-2.1,1.4
			c-0.5,0.7-0.6,1.6-0.4,2.5l4,14.4c0.4,1.4,1.7,2.3,3.1,2.3l0.3,0c7.2,0,20.4,10.8,27.2,34.9c0.3,1,0.5,1.9,0.8,3
			c-7.6-3.7-16.6-4.6-24.8-2.3c-18.4,5.2-29.2,24.3-24.1,42.8c4.2,14.9,17.9,25.4,33.4,25.4c3.2,0,6.3-0.4,9.4-1.3
			c12.2-3.4,21.3-13.5,25.7-28.4C154.1,81.5,154,65.2,149.9,50.3z"/>
		<path class="st0" d="M21.8,0.1c-1.6,0-3.1,0.1-4.7,0.4c-0.9,0.1-1.6,0.7-2.1,1.4c-0.5,0.7-0.6,1.6-0.4,2.5l4,14.4
			c0.4,1.4,1.7,2.3,3.1,2.3l0.3,0c7.2,0,20.4,10.8,27.2,34.9c0.3,1,0.5,1.9,0.8,3c-7.6-3.7-16.6-4.6-24.8-2.3
			C6.9,61.7-3.9,80.9,1.3,99.3c4.2,14.9,17.9,25.4,33.4,25.4c3.2,0,6.3-0.4,9.4-1.3c12.2-3.4,21.3-13.5,25.7-28.4
			c4-13.5,3.9-29.7-0.3-44.7C61.4,21.2,41.3,0.1,21.8,0.1z"/>
	</g>
</g>
</svg>
