<svg id="Capa_1" data-name="Capa 1" xmlns="http://www.w3.org/2000/svg" viewBox="0 0 85 82.3"><defs><style>.cls-1{fill:#d7d7d7;}</style></defs><title>libra-hover  for card prew</title><path class="cls-1" d="M84.89,41.82h-.07l-12.2-31h5.57a1.85,1.85,0,0,0,0-3.69h-34V1.84a1.81,1.81,0,1,0-3.61,0V7.16h-34a1.85,1.85,0,0,0,0,3.69h5.8L.14,41.82A1.88,1.88,0,0,0,0,42.5,15.19,15.19,0,0,0,15,57.84,15.19,15.19,0,0,0,30,42.5a1.88,1.88,0,0,0-.14-.68l-12.2-31h22.9v57c-8.62.66-15.36,6-15.36,12.49A1.83,1.83,0,0,0,27,82.2H57.73a1.83,1.83,0,0,0,1.81-1.84c0-6.48-6.74-11.83-15.36-12.49v-57H67.25l-12.13,31a1.88,1.88,0,0,0-.14.68,15,15,0,1,0,30-.05h0A1.88,1.88,0,0,0,84.89,41.82ZM15,54.18a11.5,11.5,0,0,1-11.26-9.8H26.21A11.5,11.5,0,0,1,15,54.18ZM25.56,40.7h-21l10.5-26.77Zm30,37.82H29.12c1.34-4,6.85-7,13.23-7s11.91,3,13.25,7ZM69.93,13.95,80.43,40.7h-21Zm0,40.24h0a11.5,11.5,0,0,1-11.19-9.81H81.19a11.5,11.5,0,0,1-11.26,9.8Z" transform="translate(0 0.1)"/></svg>