<?xml version="1.0" encoding="utf-8"?>
<!-- Generator: Adobe Illustrator 20.0.0, SVG Export Plug-In . SVG Version: 6.00 Build 0)  -->
<svg version="1.1" id="Capa_1" xmlns="http://www.w3.org/2000/svg" xmlns:xlink="http://www.w3.org/1999/xlink" x="0px" y="0px"
	 viewBox="0 0 85 82.2" style="enable-background:new 0 0 85 82.2;" xml:space="preserve">
<style type="text/css">
	.st0{fill:#8DC63F;}
</style>
<g>
	<g>
		<path class="st0" d="M84.9,41.8L84.9,41.8l-12.3-31h5.6c1,0,1.8-0.8,1.8-1.8s-0.8-1.8-1.8-1.8h-34V1.8c0-1-0.8-1.8-1.8-1.8
			s-1.8,0.8-1.8,1.8v5.3h-34C5.6,7.2,4.8,8,4.8,9s0.8,1.8,1.8,1.8h5.8l-12.2,31C0.1,42,0,42.3,0,42.5C0,51,6.7,57.8,15,57.8
			s15-6.9,15-15.3c0-0.2-0.1-0.5-0.1-0.7l-12.2-31h22.8v57c-8.6,0.7-15.4,6-15.4,12.5c0,1,0.8,1.8,1.8,1.8h30.7c1,0,1.8-0.8,1.8-1.8
			c0-6.5-6.7-11.8-15.4-12.5v-57h23.1l-12.1,31C55,42,55,42.3,55,42.5c0,8.5,6.7,15.3,15,15.3S85,51,85,42.5
			C85,42.3,85,42,84.9,41.8z M15,54.2c-5.6,0-10.4-4.2-11.3-9.8h22.4C25.3,50,20.6,54.1,15,54.2z M25.6,40.7h-21l10.5-26.8
			L25.6,40.7z M55.6,78.5H29.1c1.3-4,6.9-7,13.2-7S54.3,74.5,55.6,78.5z M69.9,13.9l10.5,26.7h-21L69.9,13.9z M69.9,54.2L69.9,54.2
			c-5.6,0-10.3-4.2-11.2-9.8h22.4C80.3,50,75.5,54.2,69.9,54.2z"/>
	</g>
</g>
</svg>
