<?xml version="1.0" encoding="utf-8"?>
<!-- Generator: Adobe Illustrator 20.0.0, SVG Export Plug-In . SVG Version: 6.00 Build 0)  -->
<svg version="1.1" id="Capa_1" xmlns="http://www.w3.org/2000/svg" xmlns:xlink="http://www.w3.org/1999/xlink" x="0px" y="0px"
	 viewBox="0 0 79.4 79.4" style="enable-background:new 0 0 79.4 79.4;" xml:space="preserve">
<style type="text/css">
	.st0{fill:#FFFFFF;}
</style>
<g>
	<g>
		<path class="st0" d="M68.9,29.6H32c-0.6,0-1.2,0.5-1.2,1.2S31.4,32,32,32h36.9c0.6,0,1.2-0.5,1.2-1.2S69.6,29.6,68.9,29.6z"/>
		<path class="st0" d="M68.9,38.5H32c-0.6,0-1.2,0.5-1.2,1.2c0,0.6,0.5,1.2,1.2,1.2h36.9c0.6,0,1.2-0.5,1.2-1.2
			C70.1,39,69.6,38.5,68.9,38.5z"/>
		<path class="st0" d="M68.9,47.4H32c-0.6,0-1.2,0.5-1.2,1.2c0,0.6,0.5,1.2,1.2,1.2h36.9c0.6,0,1.2-0.5,1.2-1.2
			C70.1,47.9,69.6,47.4,68.9,47.4z"/>
		<path class="st0" d="M72.6,19.5H28.3c-3.7,0-6.8,3-6.8,6.8v27.8c0,3.7,3,6.8,6.8,6.8h31c0.3,0,0.6,0.1,0.8,0.4l10,12.7
			c0.4,0.5,1,0.8,1.6,0.8c0.2,0,0.5,0,0.7-0.1c0.8-0.3,1.4-1,1.4-1.9v-12c3.1-0.6,5.5-3.4,5.5-6.6V26.2
			C79.4,22.5,76.3,19.5,72.6,19.5L72.6,19.5z M77,54.1c0,2.4-2,4.4-4.4,4.4c-0.6,0-1.1,0.5-1.1,1.2v12.1l-9.5-12
			c-0.6-0.8-1.6-1.3-2.7-1.3h-31c-2.4,0-4.4-2-4.4-4.4V26.2c0-2.4,2-4.4,4.4-4.4h44.3c2.4,0,4.4,2,4.4,4.4V54.1z"/>
		<path class="st0" d="M17.1,38.7c-0.8,0.1-1.5,0.5-2,1.2L7.1,50V39.8c0-0.6-0.5-1.2-1.1-1.2c-2,0-3.7-1.7-3.7-3.7V10.7
			C2.3,8.7,4,7,6,7h38.5c2,0,3.7,1.7,3.7,3.7v4.5c0,0.6,0.5,1.2,1.2,1.2c0.6,0,1.2-0.5,1.2-1.2v-4.5c0-3.3-2.7-6-6-6H6
			c-3.3,0-6,2.7-6,6v24.2c0,2.9,2.1,5.3,4.8,5.9v10.3c0,0.8,0.5,1.5,1.3,1.8c0.2,0.1,0.4,0.1,0.6,0.1c0.6,0,1.1-0.3,1.5-0.7l8.7-11
			c0.1-0.2,0.3-0.3,0.5-0.3c0.6-0.1,1.1-0.7,1-1.3C18.4,39,17.8,38.6,17.1,38.7L17.1,38.7z"/>
	</g>
</g>
</svg>
