<?xml version="1.0" encoding="utf-8"?>
<!-- Generator: Adobe Illustrator 20.0.0, SVG Export Plug-In . SVG Version: 6.00 Build 0)  -->
<svg version="1.1" id="Layer_5" xmlns="http://www.w3.org/2000/svg" xmlns:xlink="http://www.w3.org/1999/xlink" x="0px" y="0px"
	 viewBox="0 0 155.9 155.9" style="enable-background:new 0 0 155.9 155.9;" xml:space="preserve">
<style type="text/css">
	.st0{fill:#8BC441;}
</style>
<g>
	<path class="st0" d="M50.3,90.5h5v5h-5V90.5z"/>
	<path class="st0" d="M40.2,90.5h5v5h-5V90.5z"/>
	<path class="st0" d="M60.4,90.5h5v5h-5V90.5z"/>
	<path class="st0" d="M60.4,100.6h5v5h-5V100.6z"/>
	<path class="st0" d="M50.3,100.6h5v5h-5V100.6z"/>
	<path class="st0" d="M40.2,100.6h5v5h-5V100.6z"/>
	<path class="st0" d="M60.4,110.6h5v5h-5V110.6z"/>
	<path class="st0" d="M50.3,110.6h5v5h-5V110.6z"/>
	<path class="st0" d="M40.2,110.6h5v5h-5V110.6z"/>
	<path class="st0" d="M20.1,100.6h5v5h-5V100.6z"/>
	<path class="st0" d="M20.1,110.6h5v5h-5V110.6z"/>
	<path class="st0" d="M105.6,40.2H60.4v15.1h45.3V40.2z M100.6,50.3H65.4v-5h35.2V50.3z"/>
	<path class="st0" d="M130.8,50.3h5v5h-5V50.3z"/>
	<path class="st0" d="M140.8,50.3h5v5h-5V50.3z"/>
	<path class="st0" d="M140.8,60.4h5v5h-5V60.4z"/>
	<path class="st0" d="M130.8,60.4h5v5h-5V60.4z"/>
	<path class="st0" d="M130.8,70.4h5v5h-5V70.4z"/>
	<path class="st0" d="M140.8,70.4h5v5h-5V70.4z"/>
	<path class="st0" d="M140.8,80.5h5v5h-5V80.5z"/>
	<path class="st0" d="M130.8,80.5h5v5h-5V80.5z"/>
	<path class="st0" d="M155.9,30.2v-7.5c0-9.7-7.9-17.6-17.6-17.6c-9.7,0-17.6,7.9-17.6,17.6v7.5h5v10.1h-5v52.2
		c-1.8-3.7-3.5-7.5-5-11.3v-51h-5V10.1h-7.5V0H62.9v10.1h-7.5v20.1h-5v50.3H30.2v10.1H10.1v47C4.1,140.3,0,146.4,0,153.4v2.5h155.9
		v-5h-15.1v-15.3c8.5-1.6,15.1-11,15.1-22.4V40.2h-5V30.2L155.9,30.2z M125.7,22.6c0-6.9,5.6-12.6,12.6-12.6
		c6.9,0,12.6,5.6,12.6,12.6v2.5h-25.1V22.6z M130.8,30.2h5v10.1h-5V30.2z M110.6,113.2v-8.7l6.4-4.3l-2.8-4.2l-3.6,2.4V93h-5v11.5
		l-3.3-3.3l-3.6,3.6l6.8,6.8v1.5H90c6.8-11.2,12.6-23,17.3-35.2h1.6c4.7,12.2,10.5,24,17.3,35.2H110.6z M67.9,5h30.2v5H67.9V5z
		 M60.4,15.1h45.3v15.1h-5V20.1h-5v10.1h-5V20.1h-5v10.1h-5V20.1h-5v10.1h-5V20.1h-5v10.1h-5V15.1z M55.3,35.2h55.3v37.7h-5V60.4
		H60.4v15.1h42.6c-4.9,12.9-11.1,25.3-18.3,37l-3.6,5.7h24.7V136c-3.4-3.5-8.1-5.5-13.3-5.3c-2.2-7.3-9.1-12.6-16.9-12.6V80.5H55.3
		V35.2z M100.6,65.4v5H65.4v-5H100.6z M35.2,85.5h35.2V119c-5.7,1.7-10.3,6.2-11.9,12.1c-2.4-0.4-4.8-0.4-7.2,0.2
		c-2.8-6.3-9.1-10.5-16.1-10.5V85.5z M15.1,95.6h15.1v25.9c-1.8,0.5-3.5,1.4-5,2.4v-3.2h-5v5h2.8c-2.7,2.6-4.6,6.1-5.1,10.1
		c-0.1,0-0.1,0-0.2,0c-0.9,0-1.7,0.1-2.5,0.2V95.6z M17.6,140.8c0.7,0,1.3,0.1,2.1,0.2l2.9,0.3v-3c0-6.9,5.6-12.6,12.6-12.6
		c5.7,0,10.6,3.8,12.1,9.3l0.7,2.7l2.6-1c2.8-1.1,6-1.2,8.9-0.1l3,1.1l0.3-3.2c0.7-6.4,6.1-11.2,12.5-11.2c6.2,0,11.5,4.6,12.4,10.7
		l0.4,2.6l2.5-0.5c0.8-0.1,1.5-0.2,2.3-0.2c6.9,0,12.6,5.6,12.6,12.6v2.5H5.3C6.4,145.1,11.5,140.8,17.6,140.8L17.6,140.8z
		 M110.6,150.9v-2.5v-30.2h10.5c1.6,9.1,7.5,16,14.6,17.3v15.3H110.6z M138.3,130.8c-5.6,0-10.5-5.2-12-12.6h9l-3.6-5.7
		c-1.5-2.5-3-5-4.5-7.5c2.2-5.7,6.4-9.3,11.1-9.3c6.9,0,12.6,7.9,12.6,17.6S145.2,130.8,138.3,130.8z M138.3,90.5
		c-4.9,0-9.3,2.6-12.6,6.8V45.3h25.1v52.1C147.7,93.1,143.2,90.5,138.3,90.5L138.3,90.5z M145.8,40.2h-5V30.2h5V40.2z"/>
</g>
</svg>
