<?xml version="1.0" encoding="utf-8"?>
<!-- Generator: Adobe Illustrator 20.0.0, SVG Export Plug-In . SVG Version: 6.00 Build 0)  -->
<svg version="1.1" id="Capa_1" xmlns="http://www.w3.org/2000/svg" xmlns:xlink="http://www.w3.org/1999/xlink" x="0px" y="0px"
	 viewBox="0 0 70.9 70.9" style="enable-background:new 0 0 70.9 70.9;" xml:space="preserve">
<style type="text/css">
	.st0{fill:#FFFFFF;}
</style>
<g>
	<g>
		<path class="st0" d="M69,54.7l-2.8-1.8c6.2-10.9,6.1-24.3-0.2-35.2S48.1,0.1,35.6,0.1c-0.7,0-1.2,0.5-1.2,1.2s0.5,1.2,1.2,1.2
			c11.7,0,22.5,6.2,28.4,16.3c5.9,10.1,6,22.5,0.3,32.7l-9.6-6.4c-1.8-1.2-4.3-0.8-5.6,0.9l-4.2,5.4c-0.5,0.7-1.5,0.9-2.3,0.5
			l-0.8-0.4c-2.6-1.4-5.9-3.2-12.5-9.8s-8.4-9.9-9.8-12.5L19,28.3c-0.4-0.8-0.2-1.8,0.5-2.3l5.4-4.2c1.7-1.3,2.1-3.8,0.9-5.6
			L16.2,1.9C15,0,12.5-0.5,10.6,0.6l-6,3.6c-1.9,1.1-3.3,2.9-3.9,5c-2.2,7.9-0.5,21.5,19.5,41.5c8.7,8.7,16.2,13.9,22.5,16.9
			c-9.8,2.2-20-0.2-27.8-6.4C7.2,54.9,2.6,45.4,2.7,35.4c0-0.7-0.5-1.2-1.2-1.2s-1.2,0.5-1.2,1.2c0,19.5,15.8,35.3,35.3,35.3
			c3.6,0,7.3-0.6,10.7-1.7c3.1,1.2,6.4,1.8,9.8,1.8c1.9,0,3.7-0.2,5.6-0.7c2.1-0.6,3.9-2,5-3.9l3.6-6C71.4,58.4,70.9,55.9,69,54.7z
			 M68.2,59.1l-3.6,6c-0.8,1.4-2.1,2.4-3.6,2.8c-3.4,0.9-8.1,1.1-14.1-1.1c-0.1-0.1-0.2-0.1-0.3-0.1C40.1,64.2,31.8,59,21.9,49
			C2.7,29.8,1,17.1,3,9.8C3.4,8.3,4.4,7,5.8,6.2l6-3.6c0.8-0.5,1.9-0.3,2.4,0.5l5.2,7.8l4.4,6.5c0.5,0.8,0.4,1.8-0.4,2.4L18,24.1
			c-1.6,1.2-2.1,3.5-1.1,5.3l0.4,0.8c1.5,2.8,3.4,6.2,10.2,13.1c6.9,6.8,10.3,8.7,13.1,10.2l0.8,0.4c1.8,1,4.1,0.5,5.3-1.1l4.2-5.4
			c0.6-0.7,1.6-0.9,2.4-0.4l14.3,9.6C68.5,57.2,68.7,58.2,68.2,59.1z"/>
	</g>
</g>
</svg>
