<?xml version="1.0" encoding="utf-8"?>
<!-- Generator: Adobe Illustrator 20.0.0, SVG Export Plug-In . SVG Version: 6.00 Build 0)  -->
<svg version="1.1" id="Слой_1" xmlns="http://www.w3.org/2000/svg" xmlns:xlink="http://www.w3.org/1999/xlink" x="0px" y="0px"
	 viewBox="0 0 39.7 39.7" style="enable-background:new 0 0 39.7 39.7;" xml:space="preserve">
<style type="text/css">
	.st0{fill:#888888;}
</style>
<path class="st0" d="M21.5,29.8c0,0.9-0.7,1.7-1.7,1.7s-1.7-0.7-1.7-1.7s0.7-1.7,1.7-1.7S21.5,28.9,21.5,29.8z"/>
<path class="st0" d="M19.8,39.7C8.9,39.7,0,30.8,0,19.8S8.9,0,19.8,0s19.8,8.9,19.8,19.8S30.8,39.7,19.8,39.7z M19.8,2.5
	c-9.6,0-17.4,7.8-17.4,17.4s7.8,17.4,17.4,17.4s17.4-7.8,17.4-17.4S29.4,2.5,19.8,2.5z"/>
<path class="st0" d="M19.8,24.4c-0.7,0-1.2-0.6-1.2-1.2v-1.7c0-1.6,1-3,2.5-3.5c2-0.7,3.3-2.8,3.3-4.3c0-2.5-2-4.5-4.5-4.5
	s-4.5,2-4.5,4.5c0,0.7-0.6,1.2-1.2,1.2s-1.2-0.6-1.2-1.2c0-3.9,3.2-7,7-7s7,3.2,7,7c0,2.8-2.2,5.7-5,6.7c-0.5,0.2-0.8,0.6-0.8,1.2
	v1.7C21.1,23.8,20.5,24.4,19.8,24.4z"/>
</svg>
