<svg id="Слой_1" data-name="Слой 1" xmlns="http://www.w3.org/2000/svg" viewBox="0 0 39.69 39.69"><defs><style>.cls-1{fill:#8bc441;}</style></defs><title>round-hover</title><path class="cls-1" d="M21.5,29.76a1.65,1.65,0,1,1-1.65-1.65A1.65,1.65,0,0,1,21.5,29.76Z" transform="translate(0 0)"/><path class="cls-1" d="M19.84,39.68A19.84,19.84,0,1,1,39.69,19.84,19.86,19.86,0,0,1,19.84,39.68Zm0-37.2A17.36,17.36,0,1,0,37.2,19.84,17.38,17.38,0,0,0,19.84,2.48Z" transform="translate(0 0)"/><path class="cls-1" d="M19.84,24.39a1.24,1.24,0,0,1-1.24-1.24V21.48A3.73,3.73,0,0,1,21.09,18a5.13,5.13,0,0,0,3.3-4.33,4.55,4.55,0,1,0-9.09,0,1.24,1.24,0,0,1-2.48,0,7,7,0,1,1,14.06,0,7.61,7.61,0,0,1-5,6.67,1.24,1.24,0,0,0-.83,1.17v1.67A1.24,1.24,0,0,1,19.84,24.39Z" transform="translate(0 0)"/></svg>