<?xml version="1.0" encoding="utf-8"?>
<!-- Generator: Adobe Illustrator 20.0.0, SVG Export Plug-In . SVG Version: 6.00 Build 0)  -->
<svg version="1.1" id="Capa_1" xmlns="http://www.w3.org/2000/svg" xmlns:xlink="http://www.w3.org/1999/xlink" x="0px" y="0px"
	 viewBox="0 0 56.7 59.5" style="enable-background:new 0 0 56.7 59.5;" xml:space="preserve">
<style type="text/css">
	.st0{fill:#8DC63F;}
</style>
<path class="st0" d="M56.4,57.6L39.9,40.3c4.2-4.3,6.8-10.2,6.8-16.7C46.7,10.6,36.2,0,23.3,0S0,10.6,0,23.6s10.5,23.6,23.3,23.6
	c5.7,0,10.8-2,14.9-5.4l16.6,17.4c0.2,0.2,0.5,0.3,0.8,0.3c0.3,0,0.6-0.1,0.8-0.3C56.8,58.8,56.8,58.1,56.4,57.6z M23.3,45
	C11.7,45,2.2,35.4,2.2,23.6S11.7,2.2,23.3,2.2s21.1,9.6,21.1,21.4S35,45,23.3,45z"/>
</svg>
