<svg id="Capa_1" data-name="Capa 1" xmlns="http://www.w3.org/2000/svg" viewBox="0 0 82.2 76.54"><defs><style>.cls-1{fill:#afafaf;}</style></defs><title>shopping-cart hover</title><path class="cls-1" d="M81.86,11.13a1.77,1.77,0,0,0-1.37-.7H15.41l-1.71-9C13.7.7,12.67,0,12,0H1.71A1.63,1.63,0,0,0,0,1.74,1.63,1.63,0,0,0,1.71,3.48h8.91l8.22,42.44a12.12,12.12,0,0,0,11.65,9.74H69.87a1.74,1.74,0,0,0,0-3.48h-39A7.87,7.87,0,0,1,24,48.36l50-7A1.49,1.49,0,0,0,75.35,40L82.2,12.18A1.74,1.74,0,0,0,81.86,11.13ZM72.27,38.27l-50,6.61L16.1,13.57h62Z" transform="translate(0 0)"/><path class="cls-1" d="M29.11,59.14a8.7,8.7,0,1,0,8.56,8.7A8.55,8.55,0,0,0,29.11,59.14Zm0,13.92a5.22,5.22,0,0,1,0-10.44,5.22,5.22,0,0,1,0,10.44Z" transform="translate(0 0)"/><path class="cls-1" d="M63.37,59.14a8.7,8.7,0,1,0,8.56,8.7A8.55,8.55,0,0,0,63.37,59.14Zm0,13.92a5.22,5.22,0,1,1,5.14-5.22A5.31,5.31,0,0,1,63.37,73.06Z" transform="translate(0 0)"/></svg>