<?xml version="1.0" encoding="utf-8"?>
<!-- Generator: Adobe Illustrator 20.0.0, SVG Export Plug-In . SVG Version: 6.00 Build 0)  -->
<svg version="1.1" id="Слой_1" xmlns="http://www.w3.org/2000/svg" xmlns:xlink="http://www.w3.org/1999/xlink" x="0px" y="0px"
	 viewBox="0 0 99.2 104.9" style="enable-background:new 0 0 99.2 104.9;" xml:space="preserve">
<style type="text/css">
	.st0{fill:#8DC63F;}
</style>
<path class="st0" d="M97.3,46.2c1,0,1.9-0.8,1.9-1.8V1.8c0-1-0.8-1.8-1.9-1.8c-8.1,0-20.6,6.1-20.6,14.2V16H37.4
	c-5.2,0-9.4,4-9.4,8.9v8.5c-1.9,1.6-3.1,3.7-3.6,6C13.2,41,4.6,49.9,3.8,60.7c-2.6,0.8-4.2,3.3-3.7,5.9c0.4,2.6,2.8,4.5,5.5,4.5
	h56.2c2.7,0,5.1-1.9,5.5-4.5c0.4-2.6-1.1-5.1-3.7-5.9C62.8,49.9,54.2,41,42.9,39.4c-0.5-2.3-1.7-4.5-3.6-6v-6.7h37.4V32
	C76.7,40.1,89.2,46.2,97.3,46.2z M80.5,14.2c0-5.2,8.6-9.7,15-10.5v38.8c-6.3-0.8-15-5.4-15-10.5V14.2z M39,39.1H28.4
	c0.6-1.8,2.1-3.6,3.4-3.6h3.7C36.9,35.5,38.3,37.3,39,39.1z M61.8,67.5H5.6c-1,0-1.9-0.8-1.9-1.8c0-1,0.8-1.8,1.9-1.8h56.2
	c1,0,1.9,0.8,1.9,1.8C63.6,66.7,62.8,67.5,61.8,67.5z M59.8,60.4H7.6c1-10.1,9.9-17.8,20.5-17.8h11.2C50,42.7,58.8,50.4,59.8,60.4z
	 M37.4,23.1c-1,0-1.9,0.8-1.9,1.8V32h-3.7v-7.1c0-2.9,2.5-5.3,5.6-5.3h39.3v3.6H37.4z"/>
<path class="st0" d="M9.4,76.4c0-1-0.8-1.8-1.9-1.8s-1.9,0.8-1.9,1.8v1.8c0,1,0.8,1.8,1.9,1.8s1.9-0.8,1.9-1.8V76.4z"/>
<path class="st0" d="M16.8,76.4c0-1-0.8-1.8-1.9-1.8s-1.9,0.8-1.9,1.8v10.7c0,1,0.8,1.8,1.9,1.8s1.9-0.8,1.9-1.8V76.4z"/>
<path class="st0" d="M24.3,76.4c0-1-0.8-1.8-1.9-1.8s-1.9,0.8-1.9,1.8v1.8c0,1,0.8,1.8,1.9,1.8s1.9-0.8,1.9-1.8V76.4z"/>
<path class="st0" d="M31.8,76.4c0-1-0.8-1.8-1.9-1.8c-1,0-1.9,0.8-1.9,1.8v10.7c0,1,0.8,1.8,1.9,1.8c1,0,1.9-0.8,1.9-1.8V76.4z"/>
<path class="st0" d="M39.3,76.4c0-1-0.8-1.8-1.9-1.8c-1,0-1.9,0.8-1.9,1.8v1.8c0,1,0.8,1.8,1.9,1.8c1,0,1.9-0.8,1.9-1.8V76.4z"/>
<path class="st0" d="M46.8,76.4c0-1-0.8-1.8-1.9-1.8s-1.9,0.8-1.9,1.8v10.7c0,1,0.8,1.8,1.9,1.8s1.9-0.8,1.9-1.8V76.4z"/>
<path class="st0" d="M54.3,76.4c0-1-0.8-1.8-1.9-1.8c-1,0-1.9,0.8-1.9,1.8v1.8c0,1,0.8,1.8,1.9,1.8c1,0,1.9-0.8,1.9-1.8V76.4z"/>
<path class="st0" d="M15,92.4c-1,0-1.9,0.8-1.9,1.8v5.3c0,1,0.8,1.8,1.9,1.8s1.9-0.8,1.9-1.8v-5.3C16.8,93.2,16,92.4,15,92.4z"/>
<path class="st0" d="M30,92.4c-1,0-1.9,0.8-1.9,1.8v5.3c0,1,0.8,1.8,1.9,1.8c1,0,1.9-0.8,1.9-1.8v-5.3C31.8,93.2,31,92.4,30,92.4z"
	/>
<path class="st0" d="M44.9,92.4c-1,0-1.9,0.8-1.9,1.8v5.3c0,1,0.8,1.8,1.9,1.8s1.9-0.8,1.9-1.8v-5.3C46.8,93.2,46,92.4,44.9,92.4z"
	/>
<path class="st0" d="M59.9,92.4c-1,0-1.9,0.8-1.9,1.8v5.3c0,1,0.8,1.8,1.9,1.8c1,0,1.9-0.8,1.9-1.8v-5.3
	C61.8,93.2,60.9,92.4,59.9,92.4z"/>
<path class="st0" d="M61.8,76.4c0-1-0.8-1.8-1.9-1.8c-1,0-1.9,0.8-1.9,1.8v10.7c0,1,0.8,1.8,1.9,1.8c1,0,1.9-0.8,1.9-1.8V76.4z"/>
<path class="st0" d="M9.4,85.3c0-1-0.8-1.8-1.9-1.8s-1.9,0.8-1.9,1.8V96c0,1,0.8,1.8,1.9,1.8S9.4,97,9.4,96V85.3z"/>
<path class="st0" d="M24.3,85.3c0-1-0.8-1.8-1.9-1.8s-1.9,0.8-1.9,1.8V96c0,1,0.8,1.8,1.9,1.8s1.9-0.8,1.9-1.8V85.3z"/>
<path class="st0" d="M39.3,85.3c0-1-0.8-1.8-1.9-1.8c-1,0-1.9,0.8-1.9,1.8V96c0,1,0.8,1.8,1.9,1.8c1,0,1.9-0.8,1.9-1.8V85.3z"/>
<path class="st0" d="M54.3,85.3c0-1-0.8-1.8-1.9-1.8c-1,0-1.9,0.8-1.9,1.8V96c0,1,0.8,1.8,1.9,1.8c1,0,1.9-0.8,1.9-1.8V85.3z"/>
<path class="st0" d="M8.2,101.4c-0.3-0.1-0.7-0.2-1.1-0.1c-0.1,0-0.2,0.1-0.3,0.1c-0.1,0.1-0.2,0.1-0.3,0.2
	c-0.1,0.1-0.2,0.1-0.3,0.2c-0.2,0.2-0.3,0.4-0.4,0.6c-0.1,0.2-0.2,0.4-0.1,0.7c0,0.7,0.4,1.4,1.1,1.7c0.7,0.3,1.5,0.1,2.1-0.4
	c0.5-0.5,0.7-1.3,0.4-1.9c-0.1-0.2-0.2-0.4-0.4-0.6C8.6,101.7,8.4,101.5,8.2,101.4z"/>
<path class="st0" d="M21.1,101.8c-0.2,0.2-0.3,0.4-0.4,0.6c-0.3,0.7-0.1,1.4,0.4,1.9c0.2,0.2,0.4,0.3,0.6,0.4c0.7,0.3,1.5,0.1,2-0.4
	c0.5-0.5,0.7-1.3,0.4-1.9c-0.1-0.2-0.2-0.4-0.4-0.6C23,101.2,21.9,101.2,21.1,101.8z"/>
<path class="st0" d="M38.5,101.6c-0.1-0.1-0.2-0.1-0.3-0.2c-0.1,0-0.2-0.1-0.4-0.1c-0.4-0.1-0.7,0-1.1,0.1c-0.2,0.1-0.4,0.2-0.6,0.4
	c-0.2,0.2-0.3,0.4-0.4,0.6c-0.3,0.7-0.1,1.4,0.4,1.9c0.2,0.2,0.4,0.3,0.6,0.4c0.7,0.3,1.5,0.1,2-0.4c0.5-0.5,0.7-1.3,0.4-1.9
	c-0.1-0.2-0.2-0.4-0.4-0.6C38.7,101.7,38.6,101.7,38.5,101.6z"/>
<path class="st0" d="M51.1,101.8c-0.2,0.2-0.3,0.4-0.4,0.6c-0.1,0.2-0.2,0.4-0.1,0.7c0,0.5,0.2,0.9,0.5,1.3c0.2,0.2,0.4,0.3,0.6,0.4
	c0.6,0.2,1.2,0.2,1.8-0.2s0.8-0.9,0.8-1.5c0-0.2,0-0.5-0.1-0.7c-0.1-0.2-0.2-0.4-0.4-0.6C53,101.2,51.8,101.2,51.1,101.8z"/>
</svg>
