<?xml version="1.0" encoding="utf-8"?>
<!-- Generator: Adobe Illustrator 20.0.0, SVG Export Plug-In . SVG Version: 6.00 Build 0)  -->
<svg version="1.1" id="Capa_1" xmlns="http://www.w3.org/2000/svg" xmlns:xlink="http://www.w3.org/1999/xlink" x="0px" y="0px"
	 viewBox="0 0 90.7 87.9" style="enable-background:new 0 0 90.7 87.9;" xml:space="preserve">
<style type="text/css">
	.st0{fill:#8DC63F;}
</style>
<path class="st0" d="M88.7,39.8c1.8-1.8,2.4-4.3,1.6-6.7c-0.8-2.4-2.8-4.1-5.3-4.5l-22-3.2c-0.9-0.1-1.7-0.7-2.2-1.6L51.2,3.7
	C50.1,1.4,47.8,0,45.4,0c-2.5,0-4.7,1.4-5.8,3.7l-9.8,20.1c-0.4,0.9-1.2,1.5-2.2,1.6l-22,3.2c-2.5,0.4-4.5,2.1-5.3,4.5
	c-0.8,2.4-0.1,5,1.6,6.7l15.9,15.7c0.7,0.7,1,1.6,0.8,2.6l-3.8,22.1c-0.4,2.5,0.6,4.9,2.6,6.4c2,1.5,4.6,1.7,6.9,0.5L44,76.7
	c0.8-0.4,1.8-0.4,2.7,0l19.6,10.4c1,0.5,2,0.8,3,0.8c1.3,0,2.7-0.4,3.8-1.3c2-1.5,3-3.9,2.6-6.4L72,58.1c-0.2-0.9,0.2-1.9,0.8-2.6
	L88.7,39.8z M68.4,58.7l3.8,22.1c0.2,1.1-0.2,2.2-1.1,2.8c-0.9,0.7-2,0.7-3,0.2L48.4,73.4c-0.9-0.5-2-0.8-3-0.8s-2.1,0.3-3,0.8
	L22.7,83.9c-1,0.5-2.1,0.4-3-0.2c-0.9-0.7-1.3-1.7-1.1-2.8l3.8-22.1c0.4-2.1-0.3-4.3-1.9-5.8L4.5,37.2c-0.8-0.8-1.1-1.9-0.7-3
	c0.3-1.1,1.2-1.8,2.3-2l22-3.2c2.1-0.3,4-1.7,4.9-3.6l9.8-20.1c0.5-1,1.5-1.6,2.6-1.6c1.1,0,2.1,0.6,2.6,1.6l9.8,20.1
	c0.9,1.9,2.8,3.3,4.9,3.6l22,3.2c1.1,0.2,2,0.9,2.3,2c0.3,1.1,0.1,2.2-0.7,3L70.3,52.9C68.8,54.4,68.1,56.5,68.4,58.7z"/>
</svg>
