<svg id="Capa_1" data-name="Capa 1" xmlns="http://www.w3.org/2000/svg" viewBox="0 0 90.71 87.88"><defs><style>.cls-1{fill:#d7d7d7;}</style></defs><title>star-hover for card prew</title><path class="cls-1" d="M88.74,39.82a6.59,6.59,0,0,0,1.65-6.74,6.49,6.49,0,0,0-5.25-4.48l-22-3.23A2.87,2.87,0,0,1,61,23.79L51.19,3.67a6.47,6.47,0,0,0-11.67,0L29.7,23.79a2.87,2.87,0,0,1-2.16,1.59l-22,3.23A6.48,6.48,0,0,0,.32,33.08,6.59,6.59,0,0,0,2,39.82L17.86,55.49a2.93,2.93,0,0,1,.83,2.57L14.94,80.18a6.57,6.57,0,0,0,2.59,6.43,6.39,6.39,0,0,0,6.85.5L44,76.67a2.85,2.85,0,0,1,2.67,0L66.34,87.11a6.41,6.41,0,0,0,6.85-.5,6.57,6.57,0,0,0,2.59-6.43L72,58.06a2.93,2.93,0,0,1,.83-2.57ZM68.44,58.68,72.19,80.8a2.87,2.87,0,0,1-1.14,2.84,2.8,2.8,0,0,1-3,.22L48.38,73.42a6.44,6.44,0,0,0-6.06,0L22.69,83.86a2.81,2.81,0,0,1-3-.22,2.87,2.87,0,0,1-1.14-2.84L22.3,58.68a6.62,6.62,0,0,0-1.87-5.82L4.5,37.19a2.87,2.87,0,0,1-.73-3,2.83,2.83,0,0,1,2.32-2l22-3.23a6.5,6.5,0,0,0,4.9-3.6L42.78,5.29a2.86,2.86,0,0,1,5.15,0l9.82,20.12a6.5,6.5,0,0,0,4.9,3.6l22,3.23a2.83,2.83,0,0,1,2.32,2,2.87,2.87,0,0,1-.73,3L70.31,52.86A6.62,6.62,0,0,0,68.44,58.68Z" transform="translate(0 0.01)"/></svg>