<?xml version="1.0" encoding="utf-8"?>
<!-- Generator: Adobe Illustrator 20.0.0, SVG Export Plug-In . SVG Version: 6.00 Build 0)  -->
<svg version="1.1" id="Layer_1" xmlns="http://www.w3.org/2000/svg" xmlns:xlink="http://www.w3.org/1999/xlink" x="0px" y="0px"
	 viewBox="0 0 93.5 99.2" style="enable-background:new 0 0 93.5 99.2;" xml:space="preserve">
<style type="text/css">
	.st0{fill:#8DC63F;}
</style>
<g>
	<g>
		<path class="st0" d="M88.2,48H87c-0.8-2.3-3-3.8-5.6-3.8H43.5c-1,0-1.9,0.2-2.7,0.6V7c0-0.9-0.7-1.6-1.7-1.6
			c-0.8,0-1.5,0.5-1.6,1.3V6.4c0-3.5-2.9-6.4-6.6-6.4H6.6C2.9,0,0,2.9,0,6.4V9c0,1.2,0.7,2.1,1.7,2.6v33.1c0,2.1,0.9,4.2,2.5,5.6
			c-0.6,0.8-0.9,1.8-0.9,2.9c0,2.9,2.4,5.2,5.4,5.2h9.7v15.3c0,3.7,3.1,6.8,6.9,6.8l-2.5,16.8c-0.1,0.5,0.1,0.9,0.4,1.3
			c0.3,0.4,0.8,0.6,1.3,0.6h35.4c0.5,0,1-0.2,1.3-0.6c0.3-0.4,0.4-0.9,0.3-1.4l-4.1-16.6h7.6c6.6,0,12.7-2.5,17.4-6.9
			c4.3-4.1,6.9-9.6,7.4-15.5c2.2-0.7,3.8-2.7,3.8-5C93.5,50.3,91.1,48,88.2,48z M43.5,47.4h37.9c0.6,0,1.2,0.2,1.7,0.6H41.8
			C42.2,47.6,42.8,47.4,43.5,47.4z M35.5,44.7V18.1c0.8-0.4,1.4-1.2,1.4-2.2c0-1-0.6-1.8-1.4-2.2v-2.1c1-0.3,1.7-1.2,1.9-2.2v37.9
			c0,0.2,0,0.4,0.1,0.6h-2.8C35.2,46.9,35.5,45.8,35.5,44.7z M3.3,8.6V6.4c0-1.7,1.4-3.2,3.2-3.2h24.3c1.8,0,3.2,1.4,3.2,3.2v2.2
			H3.3z M5.1,44.7V11.8h27.1v32.9c0,1.2-0.5,2.4-1.5,3.3h-22c-0.6,0-1.2,0.1-1.8,0.3C5.8,47.4,5.1,46.1,5.1,44.7z M80,71.3
			c-4.1,3.9-9.4,6-15.1,6h-9.7c-0.5,0-1,0.2-1.3,0.6c-0.3,0.4-0.4,0.9-0.3,1.4L57.7,96H26.3l2.5-16.8c0.1-0.5-0.1-0.9-0.4-1.3
			c-0.3-0.4-0.8-0.6-1.3-0.6h-1.8c-2,0-3.7-1.6-3.7-3.6V58.4h64.8C85.9,63.3,83.7,67.8,80,71.3z M88.2,55.2H8.7c-1.1,0-2-0.9-2-2
			c0-1.1,0.9-2,2-2h77c0,0,0,0,0,0s0,0,0,0h2.5c1.1,0,2,0.9,2,2C90.2,54.3,89.3,55.2,88.2,55.2z"/>
	</g>
</g>
</svg>
