<?xml version="1.0" encoding="utf-8"?>
<!-- Generator: Adobe Illustrator 20.0.0, SVG Export Plug-In . SVG Version: 6.00 Build 0)  -->
<svg version="1.1" id="Layer_1" xmlns="http://www.w3.org/2000/svg" xmlns:xlink="http://www.w3.org/1999/xlink" x="0px" y="0px"
	 viewBox="0 0 99.2 99.2" style="enable-background:new 0 0 99.2 99.2;" xml:space="preserve">
<style type="text/css">
	.st0{fill:#8DC63F;}
</style>
<g>
	<g>
		<g>
			<path class="st0" d="M49.6,0C22.3,0,0,22.3,0,49.6s22.3,49.6,49.6,49.6S99.2,77,99.2,49.6S77,0,49.6,0z M49.6,95.1
				c-25.1,0-45.5-20.4-45.5-45.5S24.5,4.1,49.6,4.1s45.5,20.4,45.5,45.5S74.7,95.1,49.6,95.1z"/>
			<path class="st0" d="M51.1,21.3c-0.8-0.8-2.1-0.8-2.9,0L29.5,39.9c-0.8,0.8-0.8,2.1,0,2.9c0.8,0.8,2.1,0.8,2.9,0l15.1-15.1v48.8
				c0,1.1,0.9,2.1,2.1,2.1s2.1-0.9,2.1-2.1V27.7l15.1,15.1c0.4,0.4,0.9,0.6,1.5,0.6c0.5,0,1.1-0.2,1.5-0.6c0.8-0.8,0.8-2.1,0-2.9
				L51.1,21.3z"/>
		</g>
	</g>
</g>
</svg>
