<?xml version="1.0" encoding="utf-8"?>
<!-- Generator: Adobe Illustrator 20.0.0, SVG Export Plug-In . SVG Version: 6.00 Build 0)  -->
<svg version="1.1" id="Capa_1" xmlns="http://www.w3.org/2000/svg" xmlns:xlink="http://www.w3.org/1999/xlink" x="0px" y="0px"
	 viewBox="0 0 79.4 96.4" style="enable-background:new 0 0 79.4 96.4;" xml:space="preserve">
<style type="text/css">
	.st0{fill:#8DC63F;}
</style>
<g>
	<path class="st0" d="M72.3,0H7.1C3.2,0,0,3.3,0,7.3v87.3c0,1,0.8,1.8,1.8,1.8h75.8c1,0,1.8-0.8,1.8-1.8V7.3C79.4,3.3,76.2,0,72.3,0
		z M3.5,92.7V18.2h60c1,0,1.8-0.8,1.8-1.8s-0.8-1.8-1.8-1.8h-60V7.3c0-2,1.6-3.6,3.5-3.6h65.3c1.9,0,3.5,1.6,3.5,3.6v7.3h-5.2
		c-1,0-1.8,0.8-1.8,1.8s0.8,1.8,1.8,1.8h5.2v74.6H3.5z"/>
	<path class="st0" d="M39.7,25.4c-16.1,0-29.2,13.5-29.2,30.1s13.1,30.1,29.2,30.1c16.1,0,29.2-13.5,29.2-30.1S55.8,25.4,39.7,25.4z
		 M39.7,81.9C25.5,81.9,14,70.1,14,55.5s11.5-26.4,25.6-26.4c10.7,0,20,6.8,23.8,16.5h-1.6c-0.8,0-1.5,0.1-2.2,0.4
		c-3.6-7.9-11.4-13.1-20-13.1c-12.2,0-22,10.2-22,22.7s9.9,22.7,22,22.7c8.6,0,16.4-5.2,20-13.1c0.7,0.2,1.4,0.4,2.2,0.4h1.6
		C59.6,75.1,50.4,81.9,39.7,81.9z M59.9,61.2c0,0-0.1-0.1-0.1-0.1c-0.9-0.7-1.5-1.7-1.5-2.9v-5.3c0-1.2,0.6-2.3,1.5-2.9
		c0,0,0.1-0.1,0.1-0.1c0.6-0.4,1.2-0.6,2-0.6h2.8c0.5,2,0.7,4.1,0.7,6.3s-0.3,4.3-0.7,6.3h-2.8C61.1,61.8,60.4,61.6,59.9,61.2z
		 M56.7,63.1c-2.9,6.9-9.6,11.5-17,11.5c-10.2,0-18.5-8.6-18.5-19.1s8.3-19.1,18.5-19.1c7.4,0,14.1,4.6,17,11.5
		c-1.2,1.3-1.9,3-1.9,4.9v5.3C54.8,60.1,55.5,61.8,56.7,63.1z"/>
	<path class="st0" d="M68.8,9.1c0-2-1.6-3.6-3.5-3.6s-3.5,1.6-3.5,3.6s1.6,3.6,3.5,3.6S68.8,11.1,68.8,9.1z"/>
	<path class="st0" d="M54.8,5.5c-1.9,0-3.5,1.6-3.5,3.6s1.6,3.6,3.5,3.6c1.9,0,3.5-1.6,3.5-3.6S56.7,5.5,54.8,5.5z"/>
	<path class="st0" d="M26.5,7.3H10.7c-1,0-1.8,0.8-1.8,1.8s0.8,1.8,1.8,1.8h15.9c1,0,1.8-0.8,1.8-1.8S27.5,7.3,26.5,7.3z"/>
	<path class="st0" d="M37,7.3h-3.4c-1,0-1.8,0.8-1.8,1.8s0.8,1.8,1.8,1.8H37c1,0,1.8-0.8,1.8-1.8S37.9,7.3,37,7.3z"/>
	<path class="st0" d="M39.7,40c-8.3,0-15.1,7-15.1,15.5c0,1,0.8,1.8,1.8,1.8s1.8-0.8,1.8-1.8c0-6.6,5.2-11.9,11.5-11.9
		c1,0,1.8-0.8,1.8-1.8C41.4,40.8,40.7,40,39.7,40z"/>
</g>
</svg>
