<?xml version="1.0" encoding="utf-8"?>
<!-- Generator: Adobe Illustrator 20.0.0, SVG Export Plug-In . SVG Version: 6.00 Build 0)  -->
<svg version="1.1" id="Layer_1" xmlns="http://www.w3.org/2000/svg" xmlns:xlink="http://www.w3.org/1999/xlink" x="0px" y="0px"
	 viewBox="0 0 62.4 62.4" style="enable-background:new 0 0 62.4 62.4;" xml:space="preserve">
<style type="text/css">
	.st0{fill:#F7941C;}
</style>
<g>
	<g>
		<path class="st0" d="M41,1.5c-0.3-0.2-0.8-0.3-1.2-0.2c-4.7,1.7-8.6,5.9-10.3,11.2c-0.1,0.4-0.1,0.8,0.2,1.2
			c0.2,0.3,0.6,0.5,1,0.5h9.5c0.7,0,1.3-0.6,1.3-1.3V2.6C41.6,2.2,41.4,1.8,41,1.5z M39,11.7h-6.4C34,8.6,36.3,6.1,39,4.6V11.7z"/>
	</g>
</g>
<g>
	<g>
		<path class="st0" d="M53.9,2.8c-0.4-0.2-0.9-0.2-1.3,0C52.2,3,52,3.4,52,3.9V13c0,2.1-1.7,3.9-3.9,3.9H29.9
			c-0.7,0-1.3,0.6-1.3,1.3c0,1.4,0.2,2.8,0.5,4.1L2,49.4c-1.3,1.3-2,3-2,4.8c0,3.8,3.1,6.8,6.8,6.8c1.8,0,3.5-0.7,4.8-2l20.6-20.6
			c2.2-2.2,5.1-3.4,8.3-3.4h5c9.3,0,16.9-7.6,16.9-16.9C62.4,11.9,59,5.7,53.9,2.8z M45.5,32.5h-5c-3.8,0-7.4,1.5-10.1,4.2L9.8,57.2
			c-0.8,0.8-1.9,1.2-3,1.2c-2.3,0-4.2-1.9-4.2-4.2c0-1.1,0.4-2.2,1.2-3l27.6-27.6c0.3-0.3,0.5-0.8,0.3-1.3c-0.3-0.9-0.5-1.9-0.6-2.8
			v0h16.8c3.6,0,6.5-2.9,6.5-6.5V6.4c3.1,2.8,5.2,7.3,5.2,11.7C59.8,26.1,53.3,32.5,45.5,32.5z"/>
	</g>
</g>
<g>
	<g>
		<circle class="st0" cx="7.8" cy="53.3" r="2.6"/>
	</g>
</g>
<g>
	<g>
		<path class="st0" d="M40.9,22.2c-0.6-0.3-1.4-0.1-1.7,0.6L36.5,28c-0.3,0.6-0.1,1.4,0.6,1.7c0.2,0.1,0.4,0.1,0.6,0.1
			c0.5,0,0.9-0.3,1.2-0.7l2.6-5.2C41.8,23.3,41.5,22.5,40.9,22.2z"/>
	</g>
</g>
<g>
	<g>
		<path class="st0" d="M46.1,22.2c-0.6-0.3-1.4-0.1-1.7,0.6L41.7,28c-0.3,0.6-0.1,1.4,0.6,1.7c0.2,0.1,0.4,0.1,0.6,0.1
			c0.5,0,0.9-0.3,1.2-0.7l2.6-5.2C47,23.3,46.7,22.5,46.1,22.2z"/>
	</g>
</g>
<g>
	<g>
		<path class="st0" d="M51.2,22.2c-0.6-0.3-1.4-0.1-1.7,0.6L46.9,28c-0.3,0.6-0.1,1.4,0.6,1.7c0.2,0.1,0.4,0.1,0.6,0.1
			c0.5,0,0.9-0.3,1.2-0.7l2.6-5.2C52.2,23.3,51.9,22.5,51.2,22.2z"/>
	</g>
</g>
</svg>
